STARTFONT 2.1
COMMENT 
COMMENT Converted from OpenType font "LiberationSans-Bold.ttf" by "otf2bdf 3.0".
COMMENT 
FONT -FreeType-Liberation Sans-Bold-R-Normal--19-140-100-100-P-103-ISO10646-1
SIZE 14 100 100
FONTBOUNDINGBOX 23 26 -3 -6
STARTPROPERTIES 20
FOUNDRY "FreeType"
FAMILY_NAME "Liberation Sans"
WEIGHT_NAME "Bold"
SLANT "R"
SETWIDTH_NAME "Normal"
ADD_STYLE_NAME ""
PIXEL_SIZE 19
POINT_SIZE 140
RESOLUTION_X 100
RESOLUTION_Y 100
SPACING "P"
AVERAGE_WIDTH 103
CHARSET_REGISTRY "ISO10646"
CHARSET_ENCODING "1"
FONT_ASCENT 17
FONT_DESCENT 4
COPYRIGHT "Copyright © 2007 Red Hat, Inc. All rights reserved. LIBERATION is a trademark of Red Hat, Inc."
_OTF_FONTFILE "LiberationSans-Bold.ttf"
_OTF_PSNAME "LiberationSans-Bold"
_GBDFED_INFO "Edited with gbdfed 1.6."
ENDPROPERTIES
CHARS 661
STARTCHAR 0020
ENCODING 32
SWIDTH 514 0
DWIDTH 10 0
BBX 0 0 0 0
BITMAP
ENDCHAR
STARTCHAR 0021
ENCODING 33
SWIDTH 308 0
DWIDTH 6 0
BBX 2 13 2 0
BITMAP
C0
C0
C0
C0
C0
C0
C0
C0
C0
00
C0
C0
C0
ENDCHAR
STARTCHAR 0022
ENCODING 34
SWIDTH 462 0
DWIDTH 9 0
BBX 7 5 1 8
BITMAP
EE
EE
EE
EE
EE
ENDCHAR
STARTCHAR 0023
ENCODING 35
SWIDTH 565 0
DWIDTH 11 0
BBX 10 13 0 0
BITMAP
0880
1880
1880
1980
7FC0
1100
3100
3300
FFC0
2200
6200
6200
6600
ENDCHAR
STARTCHAR 0024
ENCODING 36
SWIDTH 565 0
DWIDTH 11 0
BBX 10 15 0 -1
BITMAP
0400
3F00
7F80
65C0
65C0
7400
7E00
3F80
07C0
04C0
E4C0
65C0
7FC0
3F00
0400
ENDCHAR
STARTCHAR 0025
ENCODING 37
SWIDTH 874 0
DWIDTH 17 0
BBX 16 13 0 0
BITMAP
3C18
6618
6630
C660
C660
66DE
67B3
3DB3
0333
0233
0633
0C33
081E
ENDCHAR
STARTCHAR 0026
ENCODING 38
SWIDTH 720 0
DWIDTH 14 0
BBX 12 13 1 0
BITMAP
0F00
1F80
3980
3180
1F00
1E00
7C60
EC60
C6C0
C7C0
E3C0
7FF0
3E70
ENDCHAR
STARTCHAR 0027
ENCODING 39
SWIDTH 257 0
DWIDTH 5 0
BBX 3 5 1 8
BITMAP
E0
C0
C0
C0
C0
ENDCHAR
STARTCHAR 0028
ENCODING 40
SWIDTH 308 0
DWIDTH 6 0
BBX 5 18 1 -4
BITMAP
38
30
70
60
60
E0
E0
E0
E0
E0
E0
E0
E0
60
60
70
30
38
ENDCHAR
STARTCHAR 0029
ENCODING 41
SWIDTH 308 0
DWIDTH 6 0
BBX 5 18 0 -4
BITMAP
E0
70
70
30
38
38
18
18
18
18
18
18
38
38
30
70
70
E0
ENDCHAR
STARTCHAR 002A
ENCODING 42
SWIDTH 360 0
DWIDTH 7 0
BBX 7 7 0 6
BITMAP
18
18
FE
7E
3C
6C
24
ENDCHAR
STARTCHAR 002B
ENCODING 43
SWIDTH 565 0
DWIDTH 11 0
BBX 9 8 1 2
BITMAP
1C00
1C00
1C00
FF80
FF80
1C00
1C00
1C00
ENDCHAR
STARTCHAR 002C
ENCODING 44
SWIDTH 257 0
DWIDTH 5 0
BBX 3 6 1 -3
BITMAP
E0
E0
E0
60
60
40
ENDCHAR
STARTCHAR 002D
ENCODING 45
SWIDTH 308 0
DWIDTH 6 0
BBX 5 2 1 4
BITMAP
F8
F8
ENDCHAR
STARTCHAR 002E
ENCODING 46
SWIDTH 257 0
DWIDTH 5 0
BBX 3 3 1 0
BITMAP
E0
E0
E0
ENDCHAR
STARTCHAR 002F
ENCODING 47
SWIDTH 257 0
DWIDTH 5 0
BBX 5 14 0 0
BITMAP
18
18
38
30
30
30
30
70
60
60
60
60
E0
E0
ENDCHAR
STARTCHAR 0030
ENCODING 48
SWIDTH 514 0
DWIDTH 10 0
BBX 9 13 1 0
BITMAP
3E00
7F00
E700
E300
C380
C380
C380
C380
C380
E300
E700
7F00
3C00
ENDCHAR
STARTCHAR 0031
ENCODING 49
SWIDTH 514 0
DWIDTH 10 0
BBX 6 13 1 0
BITMAP
1C
3C
FC
FC
1C
1C
1C
1C
1C
1C
1C
1C
1C
ENDCHAR
STARTCHAR 0032
ENCODING 50
SWIDTH 514 0
DWIDTH 10 0
BBX 9 13 1 0
BITMAP
3E00
7F00
E300
C380
0380
0700
0E00
1C00
3800
7000
E000
FF80
FF80
ENDCHAR
STARTCHAR 0033
ENCODING 51
SWIDTH 514 0
DWIDTH 10 0
BBX 10 13 0 0
BITMAP
1F00
3F80
7180
61C0
0380
0F00
0F00
0180
01C0
E1C0
71C0
7F80
1F00
ENDCHAR
STARTCHAR 0034
ENCODING 52
SWIDTH 514 0
DWIDTH 10 0
BBX 10 13 0 0
BITMAP
0780
0780
0F80
1F80
1B80
3380
6380
6380
FFC0
FFC0
0380
0380
0380
ENDCHAR
STARTCHAR 0035
ENCODING 53
SWIDTH 514 0
DWIDTH 10 0
BBX 9 13 1 0
BITMAP
FF00
FF00
E000
E000
FE00
FF00
E380
0380
0380
C380
E380
7F00
3E00
ENDCHAR
STARTCHAR 0036
ENCODING 54
SWIDTH 514 0
DWIDTH 10 0
BBX 9 13 1 0
BITMAP
3E00
7F00
E300
E000
C000
DE00
FF00
E380
C380
E380
E380
7F00
3E00
ENDCHAR
STARTCHAR 0037
ENCODING 55
SWIDTH 514 0
DWIDTH 10 0
BBX 9 13 1 0
BITMAP
FF80
FF80
0300
0700
0600
0E00
1C00
1C00
1800
3800
3800
3800
3000
ENDCHAR
STARTCHAR 0038
ENCODING 56
SWIDTH 514 0
DWIDTH 10 0
BBX 9 13 1 0
BITMAP
3E00
FF00
E380
E380
E300
7E00
7F00
E380
C380
C380
E380
FF00
3E00
ENDCHAR
STARTCHAR 0039
ENCODING 57
SWIDTH 514 0
DWIDTH 10 0
BBX 9 13 1 0
BITMAP
3C00
FF00
E700
C380
C380
E380
FF80
7B80
0380
0300
E700
FE00
3C00
ENDCHAR
STARTCHAR 003A
ENCODING 58
SWIDTH 360 0
DWIDTH 7 0
BBX 3 10 2 0
BITMAP
E0
E0
E0
00
00
00
00
E0
E0
E0
ENDCHAR
STARTCHAR 003B
ENCODING 59
SWIDTH 308 0
DWIDTH 6 0
BBX 3 13 2 -3
BITMAP
E0
E0
E0
00
00
00
00
E0
E0
E0
40
40
C0
ENDCHAR
STARTCHAR 003C
ENCODING 60
SWIDTH 565 0
DWIDTH 11 0
BBX 9 10 1 1
BITMAP
0080
0780
1F00
FC00
E000
E000
FC00
1F00
0780
0080
ENDCHAR
STARTCHAR 003D
ENCODING 61
SWIDTH 565 0
DWIDTH 11 0
BBX 9 6 1 3
BITMAP
FF80
FF80
0000
0000
FF80
FF80
ENDCHAR
STARTCHAR 003E
ENCODING 62
SWIDTH 565 0
DWIDTH 11 0
BBX 9 10 1 1
BITMAP
8000
F000
7E00
0F80
0380
0380
0F80
7E00
F000
8000
ENDCHAR
STARTCHAR 003F
ENCODING 63
SWIDTH 617 0
DWIDTH 12 0
BBX 10 13 1 0
BITMAP
3E00
7F80
E380
E1C0
0180
0380
0F00
0C00
1C00
0000
1C00
1C00
1C00
ENDCHAR
STARTCHAR 0040
ENCODING 64
SWIDTH 977 0
DWIDTH 19 0
BBX 16 16 1 -3
BITMAP
03F0
0C0C
1006
2003
63D9
4631
CC31
CC31
C831
C823
CC66
C79C
4000
2008
1838
0FE0
ENDCHAR
STARTCHAR 0041
ENCODING 65
SWIDTH 720 0
DWIDTH 14 0
BBX 12 13 1 0
BITMAP
0F00
0F00
1F00
1B80
1980
3980
31C0
70C0
7FE0
7FE0
E060
E070
C070
ENDCHAR
STARTCHAR 0042
ENCODING 66
SWIDTH 720 0
DWIDTH 14 0
BBX 12 13 1 0
BITMAP
FF80
FFE0
E0E0
E0E0
E0E0
FFC0
FFC0
E0E0
E070
E070
E0F0
FFE0
FFC0
ENDCHAR
STARTCHAR 0043
ENCODING 67
SWIDTH 720 0
DWIDTH 14 0
BBX 12 13 1 0
BITMAP
1F80
3FE0
70F0
E070
E000
E000
E000
E000
E000
E020
70F0
3FE0
1F80
ENDCHAR
STARTCHAR 0044
ENCODING 68
SWIDTH 720 0
DWIDTH 14 0
BBX 12 13 1 0
BITMAP
FF00
FFC0
E1E0
E0E0
E070
E070
E070
E070
E070
E0E0
E1E0
FFC0
FF00
ENDCHAR
STARTCHAR 0045
ENCODING 69
SWIDTH 668 0
DWIDTH 13 0
BBX 11 13 1 0
BITMAP
FFE0
FFE0
E000
E000
E000
FFC0
FFC0
E000
E000
E000
E000
FFE0
FFE0
ENDCHAR
STARTCHAR 0046
ENCODING 70
SWIDTH 617 0
DWIDTH 12 0
BBX 10 13 1 0
BITMAP
FFC0
FFC0
E000
E000
E000
FFC0
FFC0
E000
E000
E000
E000
E000
E000
ENDCHAR
STARTCHAR 0047
ENCODING 71
SWIDTH 771 0
DWIDTH 15 0
BBX 13 13 1 0
BITMAP
1FC0
3FE0
7070
E030
E000
E000
E1F8
E1F8
E038
E038
7078
3FF0
1FC0
ENDCHAR
STARTCHAR 0048
ENCODING 72
SWIDTH 720 0
DWIDTH 14 0
BBX 11 13 1 0
BITMAP
E060
E060
E060
E060
E060
FFE0
FFE0
E060
E060
E060
E060
E060
E060
ENDCHAR
STARTCHAR 0049
ENCODING 73
SWIDTH 257 0
DWIDTH 5 0
BBX 3 13 1 0
BITMAP
E0
E0
E0
E0
E0
E0
E0
E0
E0
E0
E0
E0
E0
ENDCHAR
STARTCHAR 004A
ENCODING 74
SWIDTH 565 0
DWIDTH 11 0
BBX 9 13 0 0
BITMAP
0F80
0F80
0180
0180
0180
0180
0180
0180
0180
E180
7380
7F00
3E00
ENDCHAR
STARTCHAR 004B
ENCODING 75
SWIDTH 720 0
DWIDTH 14 0
BBX 12 13 1 0
BITMAP
E0F0
E1E0
E3C0
E780
EF00
FE00
FE00
F700
E380
E1C0
E1E0
E0E0
E070
ENDCHAR
STARTCHAR 004C
ENCODING 76
SWIDTH 617 0
DWIDTH 12 0
BBX 10 13 1 0
BITMAP
E000
E000
E000
E000
E000
E000
E000
E000
E000
E000
E000
FFC0
FFC0
ENDCHAR
STARTCHAR 004D
ENCODING 77
SWIDTH 822 0
DWIDTH 16 0
BBX 14 13 1 0
BITMAP
F03C
F07C
F87C
F87C
F87C
ECDC
ECDC
ECDC
E79C
E79C
E79C
E71C
E31C
ENDCHAR
STARTCHAR 004E
ENCODING 78
SWIDTH 720 0
DWIDTH 14 0
BBX 11 13 1 0
BITMAP
F060
F060
F860
F860
FC60
EE60
E660
E760
E360
E3E0
E1E0
E1E0
E0E0
ENDCHAR
STARTCHAR 004F
ENCODING 79
SWIDTH 771 0
DWIDTH 15 0
BBX 13 13 1 0
BITMAP
1F80
3FE0
70F0
E070
E038
E038
E038
E038
E038
E070
70F0
3FE0
1F80
ENDCHAR
STARTCHAR 0050
ENCODING 80
SWIDTH 668 0
DWIDTH 13 0
BBX 11 13 1 0
BITMAP
FF80
FFC0
E0E0
E0E0
E0E0
FFC0
FF80
E000
E000
E000
E000
E000
E000
ENDCHAR
STARTCHAR 0051
ENCODING 81
SWIDTH 771 0
DWIDTH 15 0
BBX 13 17 1 -4
BITMAP
1F80
3FE0
70F0
E070
E038
E038
E038
E038
E038
E070
70F0
3FE0
1FC0
0700
0380
03F0
01F0
ENDCHAR
STARTCHAR 0052
ENCODING 82
SWIDTH 720 0
DWIDTH 14 0
BBX 12 13 1 0
BITMAP
FFC0
FFE0
E0F0
E070
E0E0
FFE0
FF80
E380
E1C0
E1C0
E0E0
E0F0
E070
ENDCHAR
STARTCHAR 0053
ENCODING 83
SWIDTH 668 0
DWIDTH 13 0
BBX 11 13 1 0
BITMAP
3F00
7FC0
E1C0
E0E0
E000
7E00
3FC0
03E0
00E0
C0E0
E0E0
7FC0
3F80
ENDCHAR
STARTCHAR 0054
ENCODING 84
SWIDTH 617 0
DWIDTH 12 0
BBX 11 13 0 0
BITMAP
FFE0
FFE0
0E00
0E00
0E00
0E00
0E00
0E00
0E00
0E00
0E00
0E00
0E00
ENDCHAR
STARTCHAR 0055
ENCODING 85
SWIDTH 720 0
DWIDTH 14 0
BBX 12 13 1 0
BITMAP
E070
E070
E070
E070
E070
E070
E070
E070
E070
E0E0
70E0
7FC0
1F80
ENDCHAR
STARTCHAR 0056
ENCODING 86
SWIDTH 668 0
DWIDTH 13 0
BBX 12 13 0 0
BITMAP
E030
6070
7070
7060
30E0
38E0
18C0
19C0
1D80
0D80
0F80
0F00
0700
ENDCHAR
STARTCHAR 0057
ENCODING 87
SWIDTH 925 0
DWIDTH 18 0
BBX 18 13 0 0
BITMAP
E1E1C0
E1E1C0
61E180
71E380
73F380
737300
333300
3B3700
3F3F00
3E3E00
1E1E00
1E1E00
1E1E00
ENDCHAR
STARTCHAR 0058
ENCODING 88
SWIDTH 668 0
DWIDTH 13 0
BBX 11 13 1 0
BITMAP
E0E0
61C0
71C0
3B80
3B00
1F00
0E00
1F00
3B00
3380
71C0
E0C0
C0E0
ENDCHAR
STARTCHAR 0059
ENCODING 89
SWIDTH 668 0
DWIDTH 13 0
BBX 11 13 1 0
BITMAP
C0E0
E0C0
61C0
7180
3B80
1B00
1F00
0E00
0E00
0E00
0E00
0E00
0E00
ENDCHAR
STARTCHAR 005A
ENCODING 90
SWIDTH 617 0
DWIDTH 12 0
BBX 10 13 1 0
BITMAP
FFC0
FFC0
0380
0700
0700
0E00
1C00
3800
3800
7000
E000
FFC0
FFC0
ENDCHAR
STARTCHAR 005B
ENCODING 91
SWIDTH 308 0
DWIDTH 6 0
BBX 5 18 1 -4
BITMAP
F8
E0
E0
E0
E0
E0
E0
E0
E0
E0
E0
E0
E0
E0
E0
E0
E0
F8
ENDCHAR
STARTCHAR 005C
ENCODING 92
SWIDTH 257 0
DWIDTH 5 0
BBX 5 14 0 0
BITMAP
E0
E0
60
60
60
60
70
30
30
30
30
38
18
18
ENDCHAR
STARTCHAR 005D
ENCODING 93
SWIDTH 308 0
DWIDTH 6 0
BBX 5 18 0 -4
BITMAP
F8
18
18
18
18
18
18
18
18
18
18
18
18
18
18
18
18
F8
ENDCHAR
STARTCHAR 005E
ENCODING 94
SWIDTH 565 0
DWIDTH 11 0
BBX 9 8 1 5
BITMAP
1C00
3600
3600
7300
6300
6380
C180
C180
ENDCHAR
STARTCHAR 005F
ENCODING 95
SWIDTH 565 0
DWIDTH 11 0
BBX 11 1 0 -3
BITMAP
FFE0
ENDCHAR
STARTCHAR 0060
ENCODING 96
SWIDTH 308 0
DWIDTH 6 0
BBX 4 3 1 11
BITMAP
C0
60
30
ENDCHAR
STARTCHAR 0061
ENCODING 97
SWIDTH 565 0
DWIDTH 11 0
BBX 10 10 1 0
BITMAP
3E00
7F00
E700
0300
7F00
FF00
C300
C700
FFC0
79C0
ENDCHAR
STARTCHAR 0062
ENCODING 98
SWIDTH 617 0
DWIDTH 12 0
BBX 10 14 1 0
BITMAP
E000
E000
E000
E000
EF00
FF80
F380
E1C0
E1C0
E1C0
E1C0
F380
FF80
EF00
ENDCHAR
STARTCHAR 0063
ENCODING 99
SWIDTH 565 0
DWIDTH 11 0
BBX 9 10 1 0
BITMAP
3E00
7F00
E380
E000
C000
E000
E380
E380
7F00
3E00
ENDCHAR
STARTCHAR 0064
ENCODING 100
SWIDTH 617 0
DWIDTH 12 0
BBX 9 14 1 0
BITMAP
0180
0180
0180
0180
3D80
7F80
E380
E180
E180
E180
E380
E380
7D80
3D80
ENDCHAR
STARTCHAR 0065
ENCODING 101
SWIDTH 565 0
DWIDTH 11 0
BBX 9 10 1 0
BITMAP
3E00
7F00
E300
E380
FF80
FF80
E000
E380
7F00
3E00
ENDCHAR
STARTCHAR 0066
ENCODING 102
SWIDTH 308 0
DWIDTH 6 0
BBX 6 14 0 0
BITMAP
1C
3C
38
30
FC
FC
30
30
30
30
30
30
30
30
ENDCHAR
STARTCHAR 0067
ENCODING 103
SWIDTH 617 0
DWIDTH 12 0
BBX 9 14 1 -4
BITMAP
3D80
7F80
E380
E380
E180
E180
E380
E380
7F80
3D80
0180
E380
7F00
3E00
ENDCHAR
STARTCHAR 0068
ENCODING 104
SWIDTH 617 0
DWIDTH 12 0
BBX 9 14 1 0
BITMAP
E000
E000
E000
E000
EF00
FF80
F380
E180
E180
E180
E180
E180
E180
E180
ENDCHAR
STARTCHAR 0069
ENCODING 105
SWIDTH 257 0
DWIDTH 5 0
BBX 3 14 1 0
BITMAP
E0
E0
E0
00
E0
E0
E0
E0
E0
E0
E0
E0
E0
E0
ENDCHAR
STARTCHAR 006A
ENCODING 106
SWIDTH 257 0
DWIDTH 5 0
BBX 4 18 0 -4
BITMAP
70
70
70
00
70
70
70
70
70
70
70
70
70
70
70
70
F0
E0
ENDCHAR
STARTCHAR 006B
ENCODING 107
SWIDTH 565 0
DWIDTH 11 0
BBX 9 14 1 0
BITMAP
E000
E000
E000
E000
E380
E700
EE00
FC00
FC00
EE00
E600
E700
E380
E380
ENDCHAR
STARTCHAR 006C
ENCODING 108
SWIDTH 257 0
DWIDTH 5 0
BBX 3 14 1 0
BITMAP
E0
E0
E0
E0
E0
E0
E0
E0
E0
E0
E0
E0
E0
E0
ENDCHAR
STARTCHAR 006D
ENCODING 109
SWIDTH 874 0
DWIDTH 17 0
BBX 15 10 1 0
BITMAP
EF38
FF7C
F3CE
E38E
E38E
E38E
E38E
E38E
E38E
E38E
ENDCHAR
STARTCHAR 006E
ENCODING 110
SWIDTH 617 0
DWIDTH 12 0
BBX 9 10 1 0
BITMAP
EF00
FF80
F380
E180
E180
E180
E180
E180
E180
E180
ENDCHAR
STARTCHAR 006F
ENCODING 111
SWIDTH 617 0
DWIDTH 12 0
BBX 10 10 1 0
BITMAP
3E00
7F80
E380
E1C0
E1C0
E1C0
E1C0
E380
7F80
3E00
ENDCHAR
STARTCHAR 0070
ENCODING 112
SWIDTH 617 0
DWIDTH 12 0
BBX 10 14 1 -4
BITMAP
EF00
FF80
F380
E1C0
E1C0
E1C0
E1C0
F380
FF80
EF00
E000
E000
E000
E000
ENDCHAR
STARTCHAR 0071
ENCODING 113
SWIDTH 617 0
DWIDTH 12 0
BBX 9 14 1 -4
BITMAP
3D80
7F80
E380
E180
E180
E180
E380
E380
7F80
3D80
0180
0180
0180
0180
ENDCHAR
STARTCHAR 0072
ENCODING 114
SWIDTH 360 0
DWIDTH 7 0
BBX 6 10 1 0
BITMAP
EC
FC
F0
E0
E0
E0
E0
E0
E0
E0
ENDCHAR
STARTCHAR 0073
ENCODING 115
SWIDTH 565 0
DWIDTH 11 0
BBX 9 10 1 0
BITMAP
3E00
FF00
C380
E000
7E00
3F00
0380
C380
FF00
7E00
ENDCHAR
STARTCHAR 0074
ENCODING 116
SWIDTH 308 0
DWIDTH 6 0
BBX 6 12 0 0
BITMAP
30
30
FC
FC
70
70
70
70
70
70
3C
3C
ENDCHAR
STARTCHAR 0075
ENCODING 117
SWIDTH 617 0
DWIDTH 12 0
BBX 9 10 1 0
BITMAP
E180
E180
E180
E180
E180
E180
E380
E380
7D80
3980
ENDCHAR
STARTCHAR 0076
ENCODING 118
SWIDTH 565 0
DWIDTH 11 0
BBX 10 10 0 0
BITMAP
E0C0
61C0
71C0
7180
3380
3B00
3B00
1F00
1E00
1E00
ENDCHAR
STARTCHAR 0077
ENCODING 119
SWIDTH 771 0
DWIDTH 15 0
BBX 15 10 0 0
BITMAP
C38E
E38C
668C
66CC
66DC
74D8
3C58
3C78
3C78
3870
ENDCHAR
STARTCHAR 0078
ENCODING 120
SWIDTH 565 0
DWIDTH 11 0
BBX 10 10 0 0
BITMAP
61C0
7380
3B00
1F00
0E00
1E00
1F00
3B80
7180
E1C0
ENDCHAR
STARTCHAR 0079
ENCODING 121
SWIDTH 565 0
DWIDTH 11 0
BBX 10 14 0 -4
BITMAP
E0C0
61C0
71C0
3180
3380
3B00
1B00
1F00
0E00
0E00
0E00
1C00
7C00
7800
ENDCHAR
STARTCHAR 007A
ENCODING 122
SWIDTH 514 0
DWIDTH 10 0
BBX 8 10 1 0
BITMAP
FF
FF
0E
1C
18
38
70
E0
FF
FF
ENDCHAR
STARTCHAR 007B
ENCODING 123
SWIDTH 360 0
DWIDTH 7 0
BBX 7 18 0 -4
BITMAP
1E
18
38
38
38
38
38
30
E0
30
38
38
38
38
38
38
18
0E
ENDCHAR
STARTCHAR 007C
ENCODING 124
SWIDTH 257 0
DWIDTH 5 0
BBX 3 18 1 -4
BITMAP
E0
E0
E0
E0
E0
E0
E0
E0
E0
E0
E0
E0
E0
E0
E0
E0
E0
E0
ENDCHAR
STARTCHAR 007D
ENCODING 125
SWIDTH 360 0
DWIDTH 7 0
BBX 7 18 0 -4
BITMAP
F0
38
18
18
18
18
18
1C
0E
1C
18
18
18
18
18
38
38
F0
ENDCHAR
STARTCHAR 007E
ENCODING 126
SWIDTH 565 0
DWIDTH 11 0
BBX 9 4 1 5
BITMAP
F000
FC80
8F80
0780
ENDCHAR
STARTCHAR 00A0
ENCODING 160
SWIDTH 257 0
DWIDTH 5 0
BBX 0 0 0 0
BITMAP
ENDCHAR
STARTCHAR 00A1
ENCODING 161
SWIDTH 308 0
DWIDTH 6 0
BBX 3 13 2 -3
BITMAP
E0
E0
E0
00
C0
C0
C0
C0
C0
C0
C0
C0
E0
ENDCHAR
STARTCHAR 00A2
ENCODING 162
SWIDTH 565 0
DWIDTH 11 0
BBX 10 13 0 0
BITMAP
0400
0400
3F00
7780
65C0
6400
E400
6400
65C0
75C0
3F80
0E00
0400
ENDCHAR
STARTCHAR 00A3
ENCODING 163
SWIDTH 565 0
DWIDTH 11 0
BBX 10 13 0 0
BITMAP
1F00
3F80
39C0
3000
3000
FE00
FE00
3000
3000
3000
60C0
FFC0
FF80
ENDCHAR
STARTCHAR 00A4
ENCODING 164
SWIDTH 565 0
DWIDTH 11 0
BBX 9 10 1 1
BITMAP
8100
FF80
FF00
E300
C300
C300
E300
FF00
FF80
8100
ENDCHAR
STARTCHAR 00A5
ENCODING 165
SWIDTH 565 0
DWIDTH 11 0
BBX 10 13 0 0
BITMAP
E0C0
61C0
7180
3380
3B00
1F00
1E00
7FC0
0E00
7FC0
0E00
0E00
0E00
ENDCHAR
STARTCHAR 00A6
ENCODING 166
SWIDTH 257 0
DWIDTH 5 0
BBX 3 18 1 -4
BITMAP
E0
E0
E0
E0
E0
E0
E0
00
00
00
00
E0
E0
E0
E0
E0
E0
E0
ENDCHAR
STARTCHAR 00A7
ENCODING 167
SWIDTH 565 0
DWIDTH 11 0
BBX 9 15 1 -2
BITMAP
3E00
FF00
E380
C000
7800
7F00
C380
C180
F300
7E00
0700
0380
C380
FF00
7E00
ENDCHAR
STARTCHAR 00A8
ENCODING 168
SWIDTH 308 0
DWIDTH 6 0
BBX 6 3 0 11
BITMAP
CC
CC
CC
ENDCHAR
STARTCHAR 00A9
ENCODING 169
SWIDTH 720 0
DWIDTH 14 0
BBX 14 13 0 0
BITMAP
0FC0
1860
2010
4788
4C48
9804
9804
9804
4CC8
4788
2010
1860
0FC0
ENDCHAR
STARTCHAR 00AA
ENCODING 170
SWIDTH 360 0
DWIDTH 7 0
BBX 7 6 0 7
BITMAP
78
0C
7C
CC
CC
76
ENDCHAR
STARTCHAR 00AB
ENCODING 171
SWIDTH 565 0
DWIDTH 11 0
BBX 9 7 1 1
BITMAP
3380
7700
E600
CC00
E600
7700
3380
ENDCHAR
STARTCHAR 00AC
ENCODING 172
SWIDTH 565 0
DWIDTH 11 0
BBX 9 5 1 2
BITMAP
FF80
FF80
0180
0180
0180
ENDCHAR
STARTCHAR 00AD
ENCODING 173
SWIDTH 308 0
DWIDTH 6 0
BBX 5 2 1 4
BITMAP
F8
F8
ENDCHAR
STARTCHAR 00AE
ENCODING 174
SWIDTH 720 0
DWIDTH 14 0
BBX 14 13 0 0
BITMAP
0FC0
1860
2010
4F88
4CC8
8CC4
8F84
8D84
4C88
4CC8
2010
1860
0FC0
ENDCHAR
STARTCHAR 00AF
ENCODING 175
SWIDTH 565 0
DWIDTH 11 0
BBX 11 1 0 13
BITMAP
FFE0
ENDCHAR
STARTCHAR 00B0
ENCODING 176
SWIDTH 411 0
DWIDTH 8 0
BBX 6 6 1 7
BITMAP
70
C8
8C
8C
C8
70
ENDCHAR
STARTCHAR 00B1
ENCODING 177
SWIDTH 514 0
DWIDTH 10 0
BBX 10 12 0 0
BITMAP
0C00
0C00
0C00
FFC0
FFC0
0C00
0C00
0C00
0000
0000
FFC0
FFC0
ENDCHAR
STARTCHAR 00B2
ENCODING 178
SWIDTH 308 0
DWIDTH 6 0
BBX 6 6 0 7
BITMAP
78
4C
0C
38
60
FC
ENDCHAR
STARTCHAR 00B3
ENCODING 179
SWIDTH 308 0
DWIDTH 6 0
BBX 6 6 0 7
BITMAP
78
0C
30
0C
CC
78
ENDCHAR
STARTCHAR 00B4
ENCODING 180
SWIDTH 308 0
DWIDTH 6 0
BBX 4 3 1 11
BITMAP
30
60
C0
ENDCHAR
STARTCHAR 00B5
ENCODING 181
SWIDTH 565 0
DWIDTH 11 0
BBX 9 14 1 -4
BITMAP
E380
E380
E380
E380
E380
E380
E380
E380
FF80
FF80
E000
E000
E000
E000
ENDCHAR
STARTCHAR 00B6
ENCODING 182
SWIDTH 565 0
DWIDTH 11 0
BBX 9 15 1 -2
BITMAP
7F80
F300
F300
F300
F300
7300
1300
1300
1300
1300
1300
1300
1300
1300
1300
ENDCHAR
STARTCHAR 00B7
ENCODING 183
SWIDTH 257 0
DWIDTH 5 0
BBX 3 3 1 5
BITMAP
E0
E0
E0
ENDCHAR
STARTCHAR 00B8
ENCODING 184
SWIDTH 308 0
DWIDTH 6 0
BBX 4 4 1 -4
BITMAP
40
E0
30
E0
ENDCHAR
STARTCHAR 00B9
ENCODING 185
SWIDTH 308 0
DWIDTH 6 0
BBX 5 6 1 7
BITMAP
60
E0
60
60
60
F8
ENDCHAR
STARTCHAR 00BA
ENCODING 186
SWIDTH 360 0
DWIDTH 7 0
BBX 7 6 0 7
BITMAP
38
64
C6
C6
6C
38
ENDCHAR
STARTCHAR 00BB
ENCODING 187
SWIDTH 565 0
DWIDTH 11 0
BBX 9 7 1 1
BITMAP
CE00
6600
7300
3380
7300
6600
CE00
ENDCHAR
STARTCHAR 00BC
ENCODING 188
SWIDTH 822 0
DWIDTH 16 0
BBX 14 13 1 0
BITMAP
6030
A020
2060
20C0
2080
F980
0300
0318
0638
0C78
0CD8
18FC
1018
ENDCHAR
STARTCHAR 00BD
ENCODING 189
SWIDTH 822 0
DWIDTH 16 0
BBX 14 13 1 0
BITMAP
6030
A060
2060
20C0
2180
F980
0300
0278
064C
0C0C
0838
1860
307C
ENDCHAR
STARTCHAR 00BE
ENCODING 190
SWIDTH 822 0
DWIDTH 16 0
BBX 14 13 1 0
BITMAP
F830
0820
3060
08C0
C880
7980
0300
0318
0638
0C78
0CD8
18FC
1018
ENDCHAR
STARTCHAR 00BF
ENCODING 191
SWIDTH 617 0
DWIDTH 12 0
BBX 10 13 1 -3
BITMAP
0E00
0E00
0E00
0000
0C00
1C00
3800
7000
E000
E1C0
E380
7F80
3E00
ENDCHAR
STARTCHAR 00C0
ENCODING 192
SWIDTH 720 0
DWIDTH 14 0
BBX 12 17 1 0
BITMAP
1C00
0E00
0300
0000
0F00
0F00
1F00
1B80
1980
3980
31C0
70C0
7FE0
7FE0
E060
E070
C070
ENDCHAR
STARTCHAR 00C1
ENCODING 193
SWIDTH 720 0
DWIDTH 14 0
BBX 12 17 1 0
BITMAP
0380
0700
0E00
0000
0F00
0F00
1F00
1B80
1980
3980
31C0
70C0
7FE0
7FE0
E060
E070
C070
ENDCHAR
STARTCHAR 00C2
ENCODING 194
SWIDTH 720 0
DWIDTH 14 0
BBX 12 17 1 0
BITMAP
0E00
0F00
1980
0000
0F00
0F00
1F00
1B80
1980
3980
31C0
70C0
7FE0
7FE0
E060
E070
C070
ENDCHAR
STARTCHAR 00C3
ENCODING 195
SWIDTH 720 0
DWIDTH 14 0
BBX 12 17 1 0
BITMAP
1C80
3F80
3380
0000
0F00
0F00
1F00
1B80
1980
3980
31C0
70C0
7FE0
7FE0
E060
E070
C070
ENDCHAR
STARTCHAR 00C4
ENCODING 196
SWIDTH 720 0
DWIDTH 14 0
BBX 12 17 1 0
BITMAP
1980
1980
1980
0000
0F00
0F00
1F00
1B80
1980
3980
31C0
70C0
7FE0
7FE0
E060
E070
C070
ENDCHAR
STARTCHAR 00C5
ENCODING 197
SWIDTH 720 0
DWIDTH 14 0
BBX 12 17 1 0
BITMAP
0E00
0900
1900
0900
0F00
0F00
1F00
1B80
1980
3980
31C0
70C0
7FE0
7FE0
E060
E070
C070
ENDCHAR
STARTCHAR 00C6
ENCODING 198
SWIDTH 977 0
DWIDTH 19 0
BBX 18 13 0 0
BITMAP
03FFC0
03FFC0
076000
066000
0E6000
0E7F80
1C7F80
1C6000
3FE000
3FE000
706000
707FC0
E07FC0
ENDCHAR
STARTCHAR 00C7
ENCODING 199
SWIDTH 720 0
DWIDTH 14 0
BBX 12 17 1 -4
BITMAP
1F80
3FE0
70F0
E070
E000
E000
E000
E000
E000
E020
70F0
3FE0
1F80
0600
0700
0300
0F00
ENDCHAR
STARTCHAR 00C8
ENCODING 200
SWIDTH 668 0
DWIDTH 13 0
BBX 11 17 1 0
BITMAP
1800
0C00
0600
0000
FFE0
FFE0
E000
E000
E000
FFC0
FFC0
E000
E000
E000
E000
FFE0
FFE0
ENDCHAR
STARTCHAR 00C9
ENCODING 201
SWIDTH 668 0
DWIDTH 13 0
BBX 11 17 1 0
BITMAP
0300
0600
0C00
0000
FFE0
FFE0
E000
E000
E000
FFC0
FFC0
E000
E000
E000
E000
FFE0
FFE0
ENDCHAR
STARTCHAR 00CA
ENCODING 202
SWIDTH 668 0
DWIDTH 13 0
BBX 11 17 1 0
BITMAP
0E00
1F00
3180
0000
FFE0
FFE0
E000
E000
E000
FFC0
FFC0
E000
E000
E000
E000
FFE0
FFE0
ENDCHAR
STARTCHAR 00CB
ENCODING 203
SWIDTH 668 0
DWIDTH 13 0
BBX 11 17 1 0
BITMAP
1180
1180
1180
0000
FFE0
FFE0
E000
E000
E000
FFC0
FFC0
E000
E000
E000
E000
FFE0
FFE0
ENDCHAR
STARTCHAR 00CC
ENCODING 204
SWIDTH 257 0
DWIDTH 5 0
BBX 4 17 0 0
BITMAP
C0
60
30
00
70
70
70
70
70
70
70
70
70
70
70
70
70
ENDCHAR
STARTCHAR 00CD
ENCODING 205
SWIDTH 257 0
DWIDTH 5 0
BBX 5 17 1 0
BITMAP
38
60
C0
00
E0
E0
E0
E0
E0
E0
E0
E0
E0
E0
E0
E0
E0
ENDCHAR
STARTCHAR 00CE
ENCODING 206
SWIDTH 257 0
DWIDTH 5 0
BBX 7 17 -1 0
BITMAP
38
7C
C6
00
38
38
38
38
38
38
38
38
38
38
38
38
38
ENDCHAR
STARTCHAR 00CF
ENCODING 207
SWIDTH 257 0
DWIDTH 5 0
BBX 6 17 0 0
BITMAP
8C
8C
8C
00
70
70
70
70
70
70
70
70
70
70
70
70
70
ENDCHAR
STARTCHAR 00D0
ENCODING 208
SWIDTH 720 0
DWIDTH 14 0
BBX 13 13 0 0
BITMAP
7F80
7FE0
70F0
7070
7038
FE38
FE38
7038
7038
7070
70F0
7FE0
7F80
ENDCHAR
STARTCHAR 00D1
ENCODING 209
SWIDTH 720 0
DWIDTH 14 0
BBX 11 17 1 0
BITMAP
1C80
3F80
3380
0000
F060
F060
F860
F860
FC60
EE60
E660
E760
E360
E3E0
E1E0
E1E0
E0E0
ENDCHAR
STARTCHAR 00D2
ENCODING 210
SWIDTH 771 0
DWIDTH 15 0
BBX 13 17 1 0
BITMAP
0E00
0700
0180
0000
1F80
3FE0
70F0
E070
E038
E038
E038
E038
E038
E070
70F0
3FE0
1F80
ENDCHAR
STARTCHAR 00D3
ENCODING 211
SWIDTH 771 0
DWIDTH 15 0
BBX 13 17 1 0
BITMAP
0180
0300
0600
0000
1F80
3FE0
70F0
E070
E038
E038
E038
E038
E038
E070
70F0
3FE0
1F80
ENDCHAR
STARTCHAR 00D4
ENCODING 212
SWIDTH 771 0
DWIDTH 15 0
BBX 13 17 1 0
BITMAP
0700
0D80
18C0
0000
1F80
3FE0
70F0
E070
E038
E038
E038
E038
E038
E070
70F0
3FE0
1F80
ENDCHAR
STARTCHAR 00D5
ENCODING 213
SWIDTH 771 0
DWIDTH 15 0
BBX 13 17 1 0
BITMAP
1C40
1FC0
1380
0000
1F80
3FE0
70F0
E070
E038
E038
E038
E038
E038
E070
70F0
3FE0
1F80
ENDCHAR
STARTCHAR 00D6
ENCODING 214
SWIDTH 771 0
DWIDTH 15 0
BBX 13 17 1 0
BITMAP
1880
1880
1880
0000
1F80
3FE0
70F0
E070
E038
E038
E038
E038
E038
E070
70F0
3FE0
1F80
ENDCHAR
STARTCHAR 00D7
ENCODING 215
SWIDTH 565 0
DWIDTH 11 0
BBX 9 9 1 2
BITMAP
4180
E380
7700
3E00
1C00
3E00
7700
E380
C180
ENDCHAR
STARTCHAR 00D8
ENCODING 216
SWIDTH 771 0
DWIDTH 15 0
BBX 13 13 1 0
BITMAP
1FB0
3FE0
70F0
E0F0
E1B8
E338
E638
E638
EC38
F870
70F0
3FE0
7F80
ENDCHAR
STARTCHAR 00D9
ENCODING 217
SWIDTH 720 0
DWIDTH 14 0
BBX 12 17 1 0
BITMAP
1C00
0E00
0600
0000
E070
E070
E070
E070
E070
E070
E070
E070
E070
E0E0
70E0
7FC0
1F80
ENDCHAR
STARTCHAR 00DA
ENCODING 218
SWIDTH 720 0
DWIDTH 14 0
BBX 12 17 1 0
BITMAP
0380
0300
0600
0000
E070
E070
E070
E070
E070
E070
E070
E070
E070
E0E0
70E0
7FC0
1F80
ENDCHAR
STARTCHAR 00DB
ENCODING 219
SWIDTH 720 0
DWIDTH 14 0
BBX 12 17 1 0
BITMAP
0E00
1F00
1980
0000
E070
E070
E070
E070
E070
E070
E070
E070
E070
E0E0
70E0
7FC0
1F80
ENDCHAR
STARTCHAR 00DC
ENCODING 220
SWIDTH 720 0
DWIDTH 14 0
BBX 12 17 1 0
BITMAP
1980
1980
1980
0000
E070
E070
E070
E070
E070
E070
E070
E070
E070
E0E0
70E0
7FC0
1F80
ENDCHAR
STARTCHAR 00DD
ENCODING 221
SWIDTH 668 0
DWIDTH 13 0
BBX 11 17 1 0
BITMAP
0380
0600
0C00
0000
C0E0
E0C0
61C0
7180
3B80
1B00
1F00
0E00
0E00
0E00
0E00
0E00
0E00
ENDCHAR
STARTCHAR 00DE
ENCODING 222
SWIDTH 668 0
DWIDTH 13 0
BBX 11 13 1 0
BITMAP
E000
E000
FF80
FFC0
E0E0
E0E0
E0E0
E0E0
FFC0
FF80
E000
E000
E000
ENDCHAR
STARTCHAR 00DF
ENCODING 223
SWIDTH 617 0
DWIDTH 12 0
BBX 10 14 1 0
BITMAP
3E00
7F80
7380
E180
E380
E700
E600
E700
E780
E1C0
E0C0
E0C0
EFC0
EF80
ENDCHAR
STARTCHAR 00E0
ENCODING 224
SWIDTH 565 0
DWIDTH 11 0
BBX 10 14 1 0
BITMAP
7000
1800
0C00
0000
3E00
FF00
E700
0300
7F00
FF00
C300
C700
FFC0
79C0
ENDCHAR
STARTCHAR 00E1
ENCODING 225
SWIDTH 565 0
DWIDTH 11 0
BBX 10 14 1 0
BITMAP
0E00
0C00
1800
0000
3E00
FF00
E700
0300
7F00
FF00
C300
C700
FFC0
79C0
ENDCHAR
STARTCHAR 00E2
ENCODING 226
SWIDTH 565 0
DWIDTH 11 0
BBX 10 14 1 0
BITMAP
1C00
3E00
6200
0000
3E00
FF00
E700
0300
7F00
FF00
C300
C700
FFC0
79C0
ENDCHAR
STARTCHAR 00E3
ENCODING 227
SWIDTH 565 0
DWIDTH 11 0
BBX 10 14 1 0
BITMAP
7300
7F00
4E00
0000
3E00
FF00
E700
0300
7F00
FF00
C300
C700
FFC0
79C0
ENDCHAR
STARTCHAR 00E4
ENCODING 228
SWIDTH 565 0
DWIDTH 11 0
BBX 10 14 1 0
BITMAP
6600
6600
6600
0000
3E00
FF00
E700
0300
7F00
FF00
C300
C700
FFC0
79C0
ENDCHAR
STARTCHAR 00E5
ENCODING 229
SWIDTH 565 0
DWIDTH 11 0
BBX 10 16 1 0
BITMAP
1C00
2400
2600
2400
1C00
0000
3E00
FF00
E700
0300
7F00
FF00
C300
C700
FFC0
79C0
ENDCHAR
STARTCHAR 00E6
ENCODING 230
SWIDTH 874 0
DWIDTH 17 0
BBX 15 10 1 0
BITMAP
3EF8
7FFC
E38E
0386
7FFE
FFFE
C380
C78E
FDFC
78F8
ENDCHAR
STARTCHAR 00E7
ENCODING 231
SWIDTH 565 0
DWIDTH 11 0
BBX 9 14 1 -4
BITMAP
3E00
7F00
E380
E000
C000
E000
E380
E380
7F00
3E00
1800
1C00
0400
1C00
ENDCHAR
STARTCHAR 00E8
ENCODING 232
SWIDTH 565 0
DWIDTH 11 0
BBX 9 14 1 0
BITMAP
3000
1800
0C00
0000
3E00
7F00
E300
E380
FF80
FF80
E000
E380
7F00
3E00
ENDCHAR
STARTCHAR 00E9
ENCODING 233
SWIDTH 565 0
DWIDTH 11 0
BBX 9 14 1 0
BITMAP
0600
0C00
1800
0000
3E00
7F00
E300
E380
FF80
FF80
E000
E380
7F00
3E00
ENDCHAR
STARTCHAR 00EA
ENCODING 234
SWIDTH 565 0
DWIDTH 11 0
BBX 9 14 1 0
BITMAP
1C00
3600
6300
0000
3E00
7F00
E300
E380
FF80
FF80
E000
E380
7F00
3E00
ENDCHAR
STARTCHAR 00EB
ENCODING 235
SWIDTH 565 0
DWIDTH 11 0
BBX 9 14 1 0
BITMAP
6600
6600
6600
0000
3E00
7F00
E300
E380
FF80
FF80
E000
E380
7F00
3E00
ENDCHAR
STARTCHAR 00EC
ENCODING 236
SWIDTH 257 0
DWIDTH 5 0
BBX 4 14 0 0
BITMAP
C0
60
30
00
70
70
70
70
70
70
70
70
70
70
ENDCHAR
STARTCHAR 00ED
ENCODING 237
SWIDTH 257 0
DWIDTH 5 0
BBX 5 14 1 0
BITMAP
38
60
C0
00
E0
E0
E0
E0
E0
E0
E0
E0
E0
E0
ENDCHAR
STARTCHAR 00EE
ENCODING 238
SWIDTH 257 0
DWIDTH 5 0
BBX 7 14 -1 0
BITMAP
38
7C
C6
00
38
38
38
38
38
38
38
38
38
38
ENDCHAR
STARTCHAR 00EF
ENCODING 239
SWIDTH 257 0
DWIDTH 5 0
BBX 6 14 0 0
BITMAP
CC
CC
CC
00
70
70
70
70
70
70
70
70
70
70
ENDCHAR
STARTCHAR 00F0
ENCODING 240
SWIDTH 617 0
DWIDTH 12 0
BBX 10 14 1 0
BITMAP
3900
1F00
3E00
2700
0380
3F80
7FC0
E3C0
E1C0
C1C0
E1C0
E380
7F80
3E00
ENDCHAR
STARTCHAR 00F1
ENCODING 241
SWIDTH 617 0
DWIDTH 12 0
BBX 9 14 1 0
BITMAP
3980
3F00
6700
0000
EF00
FF80
F380
E180
E180
E180
E180
E180
E180
E180
ENDCHAR
STARTCHAR 00F2
ENCODING 242
SWIDTH 617 0
DWIDTH 12 0
BBX 10 14 1 0
BITMAP
3800
1C00
0600
0000
3E00
7F80
E380
E1C0
E1C0
E1C0
E1C0
E380
7F80
3E00
ENDCHAR
STARTCHAR 00F3
ENCODING 243
SWIDTH 617 0
DWIDTH 12 0
BBX 10 14 1 0
BITMAP
0700
0E00
1800
0000
3E00
7F80
E380
E1C0
E1C0
E1C0
E1C0
E380
7F80
3E00
ENDCHAR
STARTCHAR 00F4
ENCODING 244
SWIDTH 617 0
DWIDTH 12 0
BBX 10 14 1 0
BITMAP
1C00
3E00
2300
0000
3E00
7F80
E380
E1C0
E1C0
E1C0
E1C0
E380
7F80
3E00
ENDCHAR
STARTCHAR 00F5
ENCODING 245
SWIDTH 617 0
DWIDTH 12 0
BBX 10 14 1 0
BITMAP
3900
7F00
6700
0000
3E00
7F80
E380
E1C0
E1C0
E1C0
E1C0
E380
7F80
3E00
ENDCHAR
STARTCHAR 00F6
ENCODING 246
SWIDTH 617 0
DWIDTH 12 0
BBX 10 14 1 0
BITMAP
3300
3300
3300
0000
3E00
7F80
E380
E1C0
E1C0
E1C0
E1C0
E380
7F80
3E00
ENDCHAR
STARTCHAR 00F7
ENCODING 247
SWIDTH 514 0
DWIDTH 10 0
BBX 10 8 0 2
BITMAP
0C00
0C00
0000
FFC0
FFC0
0000
0C00
0C00
ENDCHAR
STARTCHAR 00F8
ENCODING 248
SWIDTH 617 0
DWIDTH 12 0
BBX 10 10 1 0
BITMAP
3EC0
7F80
E380
E7C0
EDC0
F9C0
F1C0
E380
7F80
BE00
ENDCHAR
STARTCHAR 00F9
ENCODING 249
SWIDTH 617 0
DWIDTH 12 0
BBX 9 14 1 0
BITMAP
3000
1800
0C00
0000
E180
E180
E180
E180
E180
E180
E380
E380
7D80
3980
ENDCHAR
STARTCHAR 00FA
ENCODING 250
SWIDTH 617 0
DWIDTH 12 0
BBX 9 14 1 0
BITMAP
0700
0E00
1800
0000
E180
E180
E180
E180
E180
E180
E380
E380
7D80
3980
ENDCHAR
STARTCHAR 00FB
ENCODING 251
SWIDTH 617 0
DWIDTH 12 0
BBX 9 14 1 0
BITMAP
1C00
3E00
2300
0000
E180
E180
E180
E180
E180
E180
E380
E380
7D80
3980
ENDCHAR
STARTCHAR 00FC
ENCODING 252
SWIDTH 617 0
DWIDTH 12 0
BBX 9 14 1 0
BITMAP
3300
3300
3300
0000
E180
E180
E180
E180
E180
E180
E380
E380
7D80
3980
ENDCHAR
STARTCHAR 00FD
ENCODING 253
SWIDTH 565 0
DWIDTH 11 0
BBX 10 18 0 -4
BITMAP
0300
0600
0C00
0000
E0C0
61C0
71C0
3180
3380
3B00
1B00
1F00
0E00
0E00
0E00
1C00
7C00
7800
ENDCHAR
STARTCHAR 00FE
ENCODING 254
SWIDTH 617 0
DWIDTH 12 0
BBX 10 18 1 -4
BITMAP
E000
E000
E000
E000
EF00
FF80
F380
E1C0
E1C0
E1C0
E1C0
F380
FF80
EF00
E000
E000
E000
E000
ENDCHAR
STARTCHAR 00FF
ENCODING 255
SWIDTH 565 0
DWIDTH 11 0
BBX 10 18 0 -4
BITMAP
3300
3300
3300
0000
E0C0
61C0
71C0
3180
3380
3B00
1B00
1F00
0E00
0E00
0E00
1C00
7C00
7800
ENDCHAR
STARTCHAR 0100
ENCODING 256
SWIDTH 720 0
DWIDTH 14 0
BBX 12 16 1 0
BITMAP
1F80
1F80
0000
0F00
0F00
1F00
1B80
1980
3980
31C0
70C0
7FE0
7FE0
E060
E070
C070
ENDCHAR
STARTCHAR 0101
ENCODING 257
SWIDTH 565 0
DWIDTH 11 0
BBX 10 13 1 0
BITMAP
3E00
3E00
0000
3E00
7F00
E700
0300
7F00
FF00
C300
C700
FFC0
79C0
ENDCHAR
STARTCHAR 0102
ENCODING 258
SWIDTH 720 0
DWIDTH 14 0
BBX 12 17 1 0
BITMAP
1180
1F80
0F00
0000
0F00
0F00
1F00
1B80
1980
3980
31C0
70C0
7FE0
7FE0
E060
E070
C070
ENDCHAR
STARTCHAR 0103
ENCODING 259
SWIDTH 565 0
DWIDTH 11 0
BBX 10 14 1 0
BITMAP
6300
3E00
1C00
0000
3E00
7F00
E700
0300
7F00
FF00
C300
C700
FFC0
79C0
ENDCHAR
STARTCHAR 0104
ENCODING 260
SWIDTH 720 0
DWIDTH 14 0
BBX 12 17 1 -4
BITMAP
0F00
0F00
1F00
1B80
1980
3980
31C0
70C0
7FE0
7FE0
E060
E070
C070
0060
0040
0040
0070
ENDCHAR
STARTCHAR 0105
ENCODING 261
SWIDTH 565 0
DWIDTH 11 0
BBX 10 14 1 -4
BITMAP
3E00
7F00
E700
0300
7F00
FF00
C300
C700
FFC0
79C0
0300
0600
0600
0380
ENDCHAR
STARTCHAR 0106
ENCODING 262
SWIDTH 720 0
DWIDTH 14 0
BBX 12 17 1 0
BITMAP
01C0
0300
0600
0000
1F80
3FE0
70F0
E070
E000
E000
E000
E000
E000
E020
70F0
3FE0
1F80
ENDCHAR
STARTCHAR 0107
ENCODING 263
SWIDTH 565 0
DWIDTH 11 0
BBX 9 14 1 0
BITMAP
0700
0E00
1800
0000
3E00
7F00
E380
E000
C000
E000
E380
E380
7F00
3E00
ENDCHAR
STARTCHAR 0108
ENCODING 264
SWIDTH 720 0
DWIDTH 14 0
BBX 12 17 1 0
BITMAP
0700
0D80
18C0
0000
1F80
3FE0
70F0
E070
E000
E000
E000
E000
E000
E020
70F0
3FE0
1F80
ENDCHAR
STARTCHAR 0109
ENCODING 265
SWIDTH 565 0
DWIDTH 11 0
BBX 9 14 1 0
BITMAP
1C00
3E00
6300
0000
3E00
7F00
E380
E000
C000
E000
E380
E380
7F00
3E00
ENDCHAR
STARTCHAR 010A
ENCODING 266
SWIDTH 720 0
DWIDTH 14 0
BBX 12 17 1 0
BITMAP
0700
0700
0700
0000
1F80
3FE0
70F0
E070
E000
E000
E000
E000
E000
E020
70F0
3FE0
1F80
ENDCHAR
STARTCHAR 010B
ENCODING 267
SWIDTH 565 0
DWIDTH 11 0
BBX 9 14 1 0
BITMAP
1C00
1C00
1C00
0000
3E00
7F00
E380
E000
C000
E000
E380
E380
7F00
3E00
ENDCHAR
STARTCHAR 010C
ENCODING 268
SWIDTH 720 0
DWIDTH 14 0
BBX 12 17 1 0
BITMAP
1880
0F80
0700
0000
1F80
3FE0
70F0
E070
E000
E000
E000
E000
E000
E020
70F0
3FE0
1F80
ENDCHAR
STARTCHAR 010D
ENCODING 269
SWIDTH 565 0
DWIDTH 11 0
BBX 9 14 1 0
BITMAP
6300
3600
1C00
0000
3E00
7F00
E380
E000
C000
E000
E380
E380
7F00
3E00
ENDCHAR
STARTCHAR 010E
ENCODING 270
SWIDTH 720 0
DWIDTH 14 0
BBX 12 17 1 0
BITMAP
3180
1B00
0E00
0000
FF00
FFC0
E1E0
E0E0
E070
E070
E070
E070
E070
E0E0
E1E0
FFC0
FF00
ENDCHAR
STARTCHAR 010F
ENCODING 271
SWIDTH 720 0
DWIDTH 14 0
BBX 13 14 1 0
BITMAP
01B8
01B8
0198
0190
3D80
7F80
E380
E180
E180
E180
E380
E380
7D80
3D80
ENDCHAR
STARTCHAR 0110
ENCODING 272
SWIDTH 720 0
DWIDTH 14 0
BBX 13 13 0 0
BITMAP
7F80
7FE0
70F0
7070
7038
FE38
FE38
7038
7038
7070
70F0
7FE0
7F80
ENDCHAR
STARTCHAR 0111
ENCODING 273
SWIDTH 617 0
DWIDTH 12 0
BBX 11 14 1 0
BITMAP
0180
0FE0
0FE0
0180
3D80
7F80
E380
E180
E180
E180
E380
E380
7F80
3D80
ENDCHAR
STARTCHAR 0112
ENCODING 274
SWIDTH 668 0
DWIDTH 13 0
BBX 11 16 1 0
BITMAP
1F00
1F00
0000
FFE0
FFE0
E000
E000
E000
FFC0
FFC0
E000
E000
E000
E000
FFE0
FFE0
ENDCHAR
STARTCHAR 0113
ENCODING 275
SWIDTH 565 0
DWIDTH 11 0
BBX 9 13 1 0
BITMAP
3E00
3E00
0000
3E00
7F00
E300
E380
FF80
FF80
E000
E380
7F00
3E00
ENDCHAR
STARTCHAR 0114
ENCODING 276
SWIDTH 668 0
DWIDTH 13 0
BBX 11 17 1 0
BITMAP
3180
1F00
0E00
0000
FFE0
FFE0
E000
E000
E000
FFC0
FFC0
E000
E000
E000
E000
FFE0
FFE0
ENDCHAR
STARTCHAR 0115
ENCODING 277
SWIDTH 565 0
DWIDTH 11 0
BBX 9 14 1 0
BITMAP
6200
7E00
3C00
0000
3E00
7F00
E300
E380
FF80
FF80
E000
E380
7F00
3E00
ENDCHAR
STARTCHAR 0116
ENCODING 278
SWIDTH 668 0
DWIDTH 13 0
BBX 11 17 1 0
BITMAP
0E00
0E00
0E00
0000
FFE0
FFE0
E000
E000
E000
FFC0
FFC0
E000
E000
E000
E000
FFE0
FFE0
ENDCHAR
STARTCHAR 0117
ENCODING 279
SWIDTH 565 0
DWIDTH 11 0
BBX 9 14 1 0
BITMAP
1C00
1C00
1C00
0000
3E00
7F00
E300
E380
FF80
FF80
E000
E380
7F00
3E00
ENDCHAR
STARTCHAR 0118
ENCODING 280
SWIDTH 668 0
DWIDTH 13 0
BBX 11 17 1 -4
BITMAP
FFE0
FFE0
E000
E000
E000
FFC0
FFC0
E000
E000
E000
E000
FFE0
FFE0
0180
0100
0100
01C0
ENDCHAR
STARTCHAR 0119
ENCODING 281
SWIDTH 565 0
DWIDTH 11 0
BBX 9 13 1 -3
BITMAP
3E00
7F00
E300
E380
FF80
FF80
E000
E380
7F00
3E00
0C00
0C00
0700
ENDCHAR
STARTCHAR 011A
ENCODING 282
SWIDTH 668 0
DWIDTH 13 0
BBX 11 17 1 0
BITMAP
3180
1B00
0E00
0000
FFE0
FFE0
E000
E000
E000
FFC0
FFC0
E000
E000
E000
E000
FFE0
FFE0
ENDCHAR
STARTCHAR 011B
ENCODING 283
SWIDTH 565 0
DWIDTH 11 0
BBX 9 14 1 0
BITMAP
6300
3600
1C00
0000
3E00
7F00
E300
E380
FF80
FF80
E000
E380
7F00
3E00
ENDCHAR
STARTCHAR 011C
ENCODING 284
SWIDTH 771 0
DWIDTH 15 0
BBX 13 17 1 0
BITMAP
0700
0D80
18C0
0000
1FC0
3FE0
7070
E030
E000
E000
E1F8
E1F8
E038
E038
7078
3FF0
1FC0
ENDCHAR
STARTCHAR 011D
ENCODING 285
SWIDTH 617 0
DWIDTH 12 0
BBX 9 18 1 -4
BITMAP
1C00
3E00
6300
0000
3D80
7F80
E380
E380
E180
E180
E380
E380
7F80
3D80
0180
E380
7F00
3E00
ENDCHAR
STARTCHAR 011E
ENCODING 286
SWIDTH 771 0
DWIDTH 15 0
BBX 13 17 1 0
BITMAP
18C0
0F80
0700
0000
1FC0
3FE0
7070
E030
E000
E000
E1F8
E1F8
E038
E038
7078
3FF0
1FC0
ENDCHAR
STARTCHAR 011F
ENCODING 287
SWIDTH 617 0
DWIDTH 12 0
BBX 9 18 1 -4
BITMAP
6300
3E00
1C00
0000
3D80
7F80
E380
E380
E180
E180
E380
E380
7F80
3D80
0180
E380
7F00
3E00
ENDCHAR
STARTCHAR 0120
ENCODING 288
SWIDTH 771 0
DWIDTH 15 0
BBX 13 17 1 0
BITMAP
0700
0700
0700
0000
1FC0
3FE0
7070
E030
E000
E000
E1F8
E1F8
E038
E038
7078
3FF0
1FC0
ENDCHAR
STARTCHAR 0121
ENCODING 289
SWIDTH 617 0
DWIDTH 12 0
BBX 9 18 1 -4
BITMAP
1C00
1C00
1C00
0000
3D80
7F80
E380
E380
E180
E180
E380
E380
7F80
3D80
0180
E380
7F00
3E00
ENDCHAR
STARTCHAR 0122
ENCODING 290
SWIDTH 771 0
DWIDTH 15 0
BBX 13 18 1 -5
BITMAP
1FC0
3FE0
7070
E030
E000
E000
E1F8
E1F8
E038
E038
7078
3FF0
1FC0
0000
0700
0700
0300
0200
ENDCHAR
STARTCHAR 0123
ENCODING 291
SWIDTH 617 0
DWIDTH 12 0
BBX 9 19 1 -4
BITMAP
0800
0800
0C00
0C00
0000
3D80
7F80
E380
E380
E180
E180
E380
E380
7F80
3D80
0180
E380
7F00
3E00
ENDCHAR
STARTCHAR 0124
ENCODING 292
SWIDTH 720 0
DWIDTH 14 0
BBX 11 17 1 0
BITMAP
0E00
0F00
1980
0000
E060
E060
E060
E060
E060
FFE0
FFE0
E060
E060
E060
E060
E060
E060
ENDCHAR
STARTCHAR 0125
ENCODING 293
SWIDTH 617 0
DWIDTH 12 0
BBX 9 18 1 0
BITMAP
1C00
1E00
3300
0000
E000
E000
E000
E000
EF00
FF80
F380
E180
E180
E180
E180
E180
E180
E180
ENDCHAR
STARTCHAR 0126
ENCODING 294
SWIDTH 720 0
DWIDTH 14 0
BBX 14 13 0 0
BITMAP
7030
7030
FFFC
FFFC
7030
7FF0
7FF0
7030
7030
7030
7030
7030
7030
ENDCHAR
STARTCHAR 0127
ENCODING 295
SWIDTH 617 0
DWIDTH 12 0
BBX 10 14 0 0
BITMAP
7000
FE00
FE00
7000
7780
7FC0
79C0
70C0
70C0
70C0
70C0
70C0
70C0
70C0
ENDCHAR
STARTCHAR 0128
ENCODING 296
SWIDTH 257 0
DWIDTH 5 0
BBX 7 17 -1 0
BITMAP
72
FE
8E
00
38
38
38
38
38
38
38
38
38
38
38
38
38
ENDCHAR
STARTCHAR 0129
ENCODING 297
SWIDTH 257 0
DWIDTH 5 0
BBX 7 14 -1 0
BITMAP
72
FE
8E
00
38
38
38
38
38
38
38
38
38
38
ENDCHAR
STARTCHAR 012A
ENCODING 298
SWIDTH 257 0
DWIDTH 5 0
BBX 6 16 0 0
BITMAP
FC
FC
00
70
70
70
70
70
70
70
70
70
70
70
70
70
ENDCHAR
STARTCHAR 012B
ENCODING 299
SWIDTH 257 0
DWIDTH 5 0
BBX 6 13 0 0
BITMAP
FC
FC
00
70
70
70
70
70
70
70
70
70
70
ENDCHAR
STARTCHAR 012C
ENCODING 300
SWIDTH 257 0
DWIDTH 5 0
BBX 7 17 -1 0
BITMAP
C6
7C
38
00
38
38
38
38
38
38
38
38
38
38
38
38
38
ENDCHAR
STARTCHAR 012D
ENCODING 301
SWIDTH 257 0
DWIDTH 5 0
BBX 7 14 -1 0
BITMAP
C6
7C
3C
00
38
38
38
38
38
38
38
38
38
38
ENDCHAR
STARTCHAR 012E
ENCODING 302
SWIDTH 257 0
DWIDTH 5 0
BBX 3 17 1 -4
BITMAP
E0
E0
E0
E0
E0
E0
E0
E0
E0
E0
E0
E0
E0
40
C0
C0
E0
ENDCHAR
STARTCHAR 012F
ENCODING 303
SWIDTH 257 0
DWIDTH 5 0
BBX 3 18 1 -4
BITMAP
E0
E0
E0
00
E0
E0
E0
E0
E0
E0
E0
E0
E0
E0
C0
80
80
E0
ENDCHAR
STARTCHAR 0130
ENCODING 304
SWIDTH 257 0
DWIDTH 5 0
BBX 3 17 1 0
BITMAP
E0
E0
E0
00
E0
E0
E0
E0
E0
E0
E0
E0
E0
E0
E0
E0
E0
ENDCHAR
STARTCHAR 0131
ENCODING 305
SWIDTH 257 0
DWIDTH 5 0
BBX 3 10 1 0
BITMAP
E0
E0
E0
E0
E0
E0
E0
E0
E0
E0
ENDCHAR
STARTCHAR 0132
ENCODING 306
SWIDTH 771 0
DWIDTH 15 0
BBX 13 13 1 0
BITMAP
E1F8
E1F8
E038
E038
E038
E038
E038
E038
E038
EC38
EE70
EFF0
E3E0
ENDCHAR
STARTCHAR 0133
ENCODING 307
SWIDTH 565 0
DWIDTH 11 0
BBX 8 18 1 -4
BITMAP
E3
E3
E3
00
E3
E3
E3
E3
E3
E3
E3
E3
E3
E3
03
07
0F
0E
ENDCHAR
STARTCHAR 0134
ENCODING 308
SWIDTH 565 0
DWIDTH 11 0
BBX 10 17 0 0
BITMAP
0700
0D80
18C0
0000
0F80
0F80
0180
0180
0180
0180
0180
0180
0180
E180
7380
7F00
3E00
ENDCHAR
STARTCHAR 0135
ENCODING 309
SWIDTH 257 0
DWIDTH 5 0
BBX 7 18 -1 -4
BITMAP
38
7C
C6
00
38
38
38
38
38
38
38
38
38
38
38
38
78
70
ENDCHAR
STARTCHAR 0136
ENCODING 310
SWIDTH 720 0
DWIDTH 14 0
BBX 12 18 1 -5
BITMAP
E0F0
E1E0
E3C0
E780
EF00
FE00
FE00
F700
E380
E1C0
E1E0
E0E0
E070
0000
0600
0600
0200
0600
ENDCHAR
STARTCHAR 0137
ENCODING 311
SWIDTH 565 0
DWIDTH 11 0
BBX 9 19 1 -5
BITMAP
E000
E000
E000
E000
E380
E700
EE00
FC00
FC00
EE00
E600
E700
E380
E380
0000
1C00
1C00
0C00
0800
ENDCHAR
STARTCHAR 0138
ENCODING 312
SWIDTH 565 0
DWIDTH 11 0
BBX 9 10 1 0
BITMAP
E380
E700
EE00
FC00
FC00
FE00
E600
E700
E380
E380
ENDCHAR
STARTCHAR 0139
ENCODING 313
SWIDTH 617 0
DWIDTH 12 0
BBX 10 17 1 0
BITMAP
1C00
3800
3000
0000
E000
E000
E000
E000
E000
E000
E000
E000
E000
E000
E000
FFC0
FFC0
ENDCHAR
STARTCHAR 013A
ENCODING 314
SWIDTH 257 0
DWIDTH 5 0
BBX 5 18 1 0
BITMAP
38
60
C0
00
E0
E0
E0
E0
E0
E0
E0
E0
E0
E0
E0
E0
E0
E0
ENDCHAR
STARTCHAR 013B
ENCODING 315
SWIDTH 617 0
DWIDTH 12 0
BBX 10 18 1 -5
BITMAP
E000
E000
E000
E000
E000
E000
E000
E000
E000
E000
E000
FFC0
FFC0
0000
0C00
0C00
0400
0800
ENDCHAR
STARTCHAR 013C
ENCODING 316
SWIDTH 257 0
DWIDTH 5 0
BBX 3 19 1 -5
BITMAP
E0
E0
E0
E0
E0
E0
E0
E0
E0
E0
E0
E0
E0
E0
00
E0
E0
60
40
ENDCHAR
STARTCHAR 013D
ENCODING 317
SWIDTH 617 0
DWIDTH 12 0
BBX 10 13 1 0
BITMAP
E300
E300
E100
E300
E000
E000
E000
E000
E000
E000
E000
FFC0
FFC0
ENDCHAR
STARTCHAR 013E
ENCODING 318
SWIDTH 360 0
DWIDTH 7 0
BBX 6 14 1 0
BITMAP
EC
EC
E4
E4
E0
E0
E0
E0
E0
E0
E0
E0
E0
E0
ENDCHAR
STARTCHAR 013F
ENCODING 319
SWIDTH 617 0
DWIDTH 12 0
BBX 10 13 1 0
BITMAP
E000
E000
E000
E000
E000
E700
E700
E700
E000
E000
E000
FFC0
FFC0
ENDCHAR
STARTCHAR 0140
ENCODING 320
SWIDTH 462 0
DWIDTH 9 0
BBX 7 14 1 0
BITMAP
E0
E0
E0
E0
E0
E0
E6
E6
E6
E0
E0
E0
E0
E0
ENDCHAR
STARTCHAR 0141
ENCODING 321
SWIDTH 617 0
DWIDTH 12 0
BBX 11 13 0 0
BITMAP
7000
7000
7000
7000
7200
7E00
7C00
F000
F000
7000
7000
7FE0
7FE0
ENDCHAR
STARTCHAR 0142
ENCODING 322
SWIDTH 257 0
DWIDTH 5 0
BBX 5 14 0 0
BITMAP
70
70
70
70
70
78
78
F0
F0
70
70
70
70
70
ENDCHAR
STARTCHAR 0143
ENCODING 323
SWIDTH 720 0
DWIDTH 14 0
BBX 11 17 1 0
BITMAP
0380
0700
0E00
0000
F060
F060
F860
F860
FC60
EE60
E660
E760
E360
E3E0
E1E0
E1E0
E0E0
ENDCHAR
STARTCHAR 0144
ENCODING 324
SWIDTH 617 0
DWIDTH 12 0
BBX 9 14 1 0
BITMAP
0700
0E00
0C00
0000
EF00
FF80
F380
E180
E180
E180
E180
E180
E180
E180
ENDCHAR
STARTCHAR 0145
ENCODING 325
SWIDTH 720 0
DWIDTH 14 0
BBX 11 18 1 -5
BITMAP
F060
F060
F860
F860
FC60
EE60
E660
E760
E360
E3E0
E1E0
E1E0
E0E0
0000
0600
0600
0200
0400
ENDCHAR
STARTCHAR 0146
ENCODING 326
SWIDTH 617 0
DWIDTH 12 0
BBX 9 15 1 -5
BITMAP
EF00
FF80
F380
E180
E180
E180
E180
E180
E180
E180
0000
0C00
0C00
0400
0C00
ENDCHAR
STARTCHAR 0147
ENCODING 327
SWIDTH 720 0
DWIDTH 14 0
BBX 11 17 1 0
BITMAP
1180
1F00
0E00
0000
F060
F060
F860
F860
FC60
EE60
E660
E760
E360
E3E0
E1E0
E1E0
E0E0
ENDCHAR
STARTCHAR 0148
ENCODING 328
SWIDTH 617 0
DWIDTH 12 0
BBX 9 14 1 0
BITMAP
6300
3E00
1C00
0000
EF00
FF80
F380
E180
E180
E180
E180
E180
E180
E180
ENDCHAR
STARTCHAR 0149
ENCODING 329
SWIDTH 668 0
DWIDTH 13 0
BBX 12 13 0 0
BITMAP
C000
C000
C000
5DE0
5FF0
DE70
1C30
1C30
1C30
1C30
1C30
1C30
1C30
ENDCHAR
STARTCHAR 014A
ENCODING 330
SWIDTH 720 0
DWIDTH 14 0
BBX 12 13 1 0
BITMAP
E7C0
EFE0
F8E0
F060
E070
E070
E070
E070
E070
E060
E4E0
EFE0
E7C0
ENDCHAR
STARTCHAR 014B
ENCODING 331
SWIDTH 617 0
DWIDTH 12 0
BBX 9 14 1 -4
BITMAP
EF00
FF80
F380
E180
E180
E180
E180
E180
E180
E180
0180
0180
0780
0780
ENDCHAR
STARTCHAR 014C
ENCODING 332
SWIDTH 771 0
DWIDTH 15 0
BBX 13 16 1 0
BITMAP
0F80
0F80
0000
1F80
3FE0
70F0
E070
E038
E038
E038
E038
E038
E070
70F0
3FE0
1F80
ENDCHAR
STARTCHAR 014D
ENCODING 333
SWIDTH 617 0
DWIDTH 12 0
BBX 10 13 1 0
BITMAP
3F00
3F00
0000
3E00
7F80
E380
E1C0
E1C0
E1C0
E1C0
E380
7F80
3E00
ENDCHAR
STARTCHAR 014E
ENCODING 334
SWIDTH 771 0
DWIDTH 15 0
BBX 13 17 1 0
BITMAP
1880
1F80
0F00
0000
1F80
3FE0
70F0
E070
E038
E038
E038
E038
E038
E070
70F0
3FE0
1F80
ENDCHAR
STARTCHAR 014F
ENCODING 335
SWIDTH 617 0
DWIDTH 12 0
BBX 10 14 1 0
BITMAP
2300
3F00
1E00
0000
3E00
7F80
E380
E1C0
E1C0
E1C0
E1C0
E380
7F80
3E00
ENDCHAR
STARTCHAR 0150
ENCODING 336
SWIDTH 771 0
DWIDTH 15 0
BBX 13 17 1 0
BITMAP
0760
0CC0
0980
0000
1F80
3FE0
70F0
E070
E038
E038
E038
E038
E038
E070
70F0
3FE0
1F80
ENDCHAR
STARTCHAR 0151
ENCODING 337
SWIDTH 617 0
DWIDTH 12 0
BBX 10 14 1 0
BITMAP
1DC0
1B80
3200
0000
3E00
7F80
E380
E1C0
E1C0
E1C0
E1C0
E380
7F80
3E00
ENDCHAR
STARTCHAR 0152
ENCODING 338
SWIDTH 977 0
DWIDTH 19 0
BBX 17 13 1 0
BITMAP
1FFF80
3FFF80
70E000
E0E000
E0E000
E0FF00
E0FF00
E0E000
E0E000
E0E000
70E000
3FFF80
1FFF80
ENDCHAR
STARTCHAR 0153
ENCODING 339
SWIDTH 925 0
DWIDTH 18 0
BBX 16 10 1 0
BITMAP
3E3C
7FFE
E3C7
E1C3
E1FF
E1FF
E1C0
E3C7
7FFE
3E3C
ENDCHAR
STARTCHAR 0154
ENCODING 340
SWIDTH 720 0
DWIDTH 14 0
BBX 12 17 1 0
BITMAP
0380
0700
0C00
0000
FFC0
FFE0
E0F0
E070
E0E0
FFE0
FF80
E380
E1C0
E1C0
E0E0
E0F0
E070
ENDCHAR
STARTCHAR 0155
ENCODING 341
SWIDTH 360 0
DWIDTH 7 0
BBX 6 14 1 0
BITMAP
1C
18
30
00
EC
FC
F0
E0
E0
E0
E0
E0
E0
E0
ENDCHAR
STARTCHAR 0156
ENCODING 342
SWIDTH 720 0
DWIDTH 14 0
BBX 12 18 1 -5
BITMAP
FFC0
FFE0
E0F0
E070
E0E0
FFE0
FF80
E380
E1C0
E1C0
E0E0
E0F0
E070
0000
0600
0600
0200
0400
ENDCHAR
STARTCHAR 0157
ENCODING 343
SWIDTH 360 0
DWIDTH 7 0
BBX 6 15 1 -5
BITMAP
EC
FC
F0
E0
E0
E0
E0
E0
E0
E0
00
E0
E0
60
40
ENDCHAR
STARTCHAR 0158
ENCODING 344
SWIDTH 720 0
DWIDTH 14 0
BBX 12 17 1 0
BITMAP
3180
1B00
0E00
0000
FFC0
FFE0
E0F0
E070
E0E0
FFE0
FF80
E380
E1C0
E1C0
E0E0
E0F0
E070
ENDCHAR
STARTCHAR 0159
ENCODING 345
SWIDTH 360 0
DWIDTH 7 0
BBX 6 14 1 0
BITMAP
CC
78
70
00
EC
FC
F0
E0
E0
E0
E0
E0
E0
E0
ENDCHAR
STARTCHAR 015A
ENCODING 346
SWIDTH 668 0
DWIDTH 13 0
BBX 11 17 1 0
BITMAP
0380
0700
0C00
0000
3F00
7FC0
E1C0
E0E0
E000
7E00
3FC0
03E0
00E0
C0E0
E0E0
7FC0
3F80
ENDCHAR
STARTCHAR 015B
ENCODING 347
SWIDTH 565 0
DWIDTH 11 0
BBX 9 14 1 0
BITMAP
0600
0C00
1800
0000
3E00
FF00
C380
E000
7E00
3F00
0380
C380
FF00
7E00
ENDCHAR
STARTCHAR 015C
ENCODING 348
SWIDTH 668 0
DWIDTH 13 0
BBX 11 17 1 0
BITMAP
0E00
1F00
3180
0000
3F00
7FC0
E1C0
E0E0
E000
7E00
3FC0
03E0
00E0
C0E0
E0E0
7FC0
3F80
ENDCHAR
STARTCHAR 015D
ENCODING 349
SWIDTH 565 0
DWIDTH 11 0
BBX 9 14 1 0
BITMAP
1C00
3E00
6200
0000
3E00
FF00
C380
E000
7E00
3F00
0380
C380
FF00
7E00
ENDCHAR
STARTCHAR 015E
ENCODING 350
SWIDTH 668 0
DWIDTH 13 0
BBX 11 17 1 -4
BITMAP
3F00
7FC0
E1C0
E0E0
E000
7E00
3FC0
03E0
00E0
C0E0
E0E0
7FC0
3F80
0400
0E00
0300
0E00
ENDCHAR
STARTCHAR 015F
ENCODING 351
SWIDTH 565 0
DWIDTH 11 0
BBX 9 14 1 -4
BITMAP
3E00
FF00
C380
E000
7E00
3F00
0380
C380
FF00
7E00
1800
1C00
0400
1C00
ENDCHAR
STARTCHAR 0160
ENCODING 352
SWIDTH 668 0
DWIDTH 13 0
BBX 11 17 1 0
BITMAP
3180
1B00
0E00
0000
3F00
7FC0
E1C0
E0E0
E000
7E00
3FC0
03E0
00E0
C0E0
E0E0
7FC0
3F80
ENDCHAR
STARTCHAR 0161
ENCODING 353
SWIDTH 565 0
DWIDTH 11 0
BBX 9 14 1 0
BITMAP
6300
3E00
1C00
0000
3E00
FF00
C380
E000
7E00
3F00
0380
C380
FF00
7E00
ENDCHAR
STARTCHAR 0162
ENCODING 354
SWIDTH 617 0
DWIDTH 12 0
BBX 11 17 0 -4
BITMAP
FFE0
FFE0
0E00
0E00
0E00
0E00
0E00
0E00
0E00
0E00
0E00
0E00
0E00
0400
0E00
0300
0E00
ENDCHAR
STARTCHAR 0163
ENCODING 355
SWIDTH 308 0
DWIDTH 6 0
BBX 6 16 0 -4
BITMAP
30
30
FC
FC
70
70
70
70
70
70
3C
3C
18
1C
0C
38
ENDCHAR
STARTCHAR 0164
ENCODING 356
SWIDTH 617 0
DWIDTH 12 0
BBX 11 17 0 0
BITMAP
1980
0F00
0E00
0000
FFE0
FFE0
0E00
0E00
0E00
0E00
0E00
0E00
0E00
0E00
0E00
0E00
0E00
ENDCHAR
STARTCHAR 0165
ENCODING 357
SWIDTH 462 0
DWIDTH 9 0
BBX 9 14 0 0
BITMAP
0180
0180
3080
3180
FC00
FC00
7000
7000
7000
7000
7000
7000
3C00
3C00
ENDCHAR
STARTCHAR 0166
ENCODING 358
SWIDTH 617 0
DWIDTH 12 0
BBX 11 13 0 0
BITMAP
FFE0
FFE0
0E00
0E00
0E00
3F80
3F80
0E00
0E00
0E00
0E00
0E00
0E00
ENDCHAR
STARTCHAR 0167
ENCODING 359
SWIDTH 308 0
DWIDTH 6 0
BBX 6 12 0 0
BITMAP
30
30
FC
FC
70
70
FC
FC
70
70
3C
3C
ENDCHAR
STARTCHAR 0168
ENCODING 360
SWIDTH 720 0
DWIDTH 14 0
BBX 12 17 1 0
BITMAP
1C80
3F80
3380
0000
E070
E070
E070
E070
E070
E070
E070
E070
E070
E0E0
70E0
7FC0
1F80
ENDCHAR
STARTCHAR 0169
ENCODING 361
SWIDTH 617 0
DWIDTH 12 0
BBX 9 14 1 0
BITMAP
3900
7F00
6700
0000
E180
E180
E180
E180
E180
E180
E380
E380
7D80
3980
ENDCHAR
STARTCHAR 016A
ENCODING 362
SWIDTH 720 0
DWIDTH 14 0
BBX 12 16 1 0
BITMAP
1F80
1F80
0000
E070
E070
E070
E070
E070
E070
E070
E070
E070
E0E0
70E0
7FC0
1F80
ENDCHAR
STARTCHAR 016B
ENCODING 363
SWIDTH 617 0
DWIDTH 12 0
BBX 9 13 1 0
BITMAP
3F00
3F00
0000
E180
E180
E180
E180
E180
E180
E380
E380
7D80
3980
ENDCHAR
STARTCHAR 016C
ENCODING 364
SWIDTH 720 0
DWIDTH 14 0
BBX 12 17 1 0
BITMAP
1180
1F80
0F00
0000
E070
E070
E070
E070
E070
E070
E070
E070
E070
E0E0
70E0
7FC0
1F80
ENDCHAR
STARTCHAR 016D
ENCODING 365
SWIDTH 617 0
DWIDTH 12 0
BBX 9 14 1 0
BITMAP
2300
3F00
1E00
0000
E180
E180
E180
E180
E180
E180
E380
E380
7D80
3980
ENDCHAR
STARTCHAR 016E
ENCODING 366
SWIDTH 720 0
DWIDTH 14 0
BBX 12 19 1 0
BITMAP
0E00
0900
1900
0900
0E00
0000
E070
E070
E070
E070
E070
E070
E070
E070
E070
E0E0
70E0
7FC0
1F80
ENDCHAR
STARTCHAR 016F
ENCODING 367
SWIDTH 617 0
DWIDTH 12 0
BBX 9 16 1 0
BITMAP
1C00
1200
3200
1200
1C00
0000
E180
E180
E180
E180
E180
E180
E380
E380
7D80
3980
ENDCHAR
STARTCHAR 0170
ENCODING 368
SWIDTH 720 0
DWIDTH 14 0
BBX 12 17 1 0
BITMAP
0EE0
0D80
1100
0000
E070
E070
E070
E070
E070
E070
E070
E070
E070
E0E0
70E0
7FC0
1F80
ENDCHAR
STARTCHAR 0171
ENCODING 369
SWIDTH 617 0
DWIDTH 12 0
BBX 9 14 1 0
BITMAP
1D80
3300
6600
0000
E180
E180
E180
E180
E180
E180
E380
E380
7D80
3980
ENDCHAR
STARTCHAR 0172
ENCODING 370
SWIDTH 720 0
DWIDTH 14 0
BBX 12 17 1 -4
BITMAP
E070
E070
E070
E070
E070
E070
E070
E070
E070
E0E0
70E0
7FC0
1F80
0200
0600
0600
0700
ENDCHAR
STARTCHAR 0173
ENCODING 371
SWIDTH 617 0
DWIDTH 12 0
BBX 9 14 1 -4
BITMAP
E180
E180
E180
E180
E180
E180
E380
E380
7D80
3980
0300
0200
0200
0380
ENDCHAR
STARTCHAR 0174
ENCODING 372
SWIDTH 925 0
DWIDTH 18 0
BBX 18 17 0 0
BITMAP
00E000
01E000
033000
000000
E1E1C0
E1E1C0
61E180
71E380
73F380
737300
333300
3B3700
3F3F00
3E3E00
1E1E00
1E1E00
1E1E00
ENDCHAR
STARTCHAR 0175
ENCODING 373
SWIDTH 771 0
DWIDTH 15 0
BBX 15 14 0 0
BITMAP
0380
06C0
0C60
0000
C38E
E38C
668C
66CC
66DC
74D8
3C58
3C78
3C78
3870
ENDCHAR
STARTCHAR 0176
ENCODING 374
SWIDTH 668 0
DWIDTH 13 0
BBX 11 17 1 0
BITMAP
0E00
1F00
3180
0000
C0E0
E0C0
61C0
7180
3B80
1B00
1F00
0E00
0E00
0E00
0E00
0E00
0E00
ENDCHAR
STARTCHAR 0177
ENCODING 375
SWIDTH 565 0
DWIDTH 11 0
BBX 10 18 0 -4
BITMAP
0E00
1B00
3180
0000
E0C0
61C0
71C0
3180
3380
3B00
1B00
1F00
0E00
0E00
0E00
1C00
7C00
7800
ENDCHAR
STARTCHAR 0178
ENCODING 376
SWIDTH 668 0
DWIDTH 13 0
BBX 11 17 1 0
BITMAP
3300
3300
3300
0000
C0E0
E0C0
61C0
7180
3B80
1B00
1F00
0E00
0E00
0E00
0E00
0E00
0E00
ENDCHAR
STARTCHAR 0179
ENCODING 377
SWIDTH 617 0
DWIDTH 12 0
BBX 10 17 1 0
BITMAP
0700
0E00
0C00
0000
FFC0
FFC0
0380
0700
0700
0E00
1C00
3800
3800
7000
E000
FFC0
FFC0
ENDCHAR
STARTCHAR 017A
ENCODING 378
SWIDTH 514 0
DWIDTH 10 0
BBX 8 14 1 0
BITMAP
0E
1C
30
00
FF
FF
0E
1C
18
38
70
E0
FF
FF
ENDCHAR
STARTCHAR 017B
ENCODING 379
SWIDTH 617 0
DWIDTH 12 0
BBX 10 17 1 0
BITMAP
0C00
0C00
0C00
0000
FFC0
FFC0
0380
0700
0700
0E00
1C00
3800
3800
7000
E000
FFC0
FFC0
ENDCHAR
STARTCHAR 017C
ENCODING 380
SWIDTH 514 0
DWIDTH 10 0
BBX 8 14 1 0
BITMAP
18
18
18
00
FF
FF
0E
1C
18
38
70
E0
FF
FF
ENDCHAR
STARTCHAR 017D
ENCODING 381
SWIDTH 617 0
DWIDTH 12 0
BBX 10 17 1 0
BITMAP
3300
1E00
1C00
0000
FFC0
FFC0
0380
0700
0700
0E00
1C00
3800
3800
7000
E000
FFC0
FFC0
ENDCHAR
STARTCHAR 017E
ENCODING 382
SWIDTH 514 0
DWIDTH 10 0
BBX 8 14 1 0
BITMAP
46
7C
38
00
FF
FF
0E
1C
18
38
70
E0
FF
FF
ENDCHAR
STARTCHAR 017F
ENCODING 383
SWIDTH 257 0
DWIDTH 5 0
BBX 5 14 1 0
BITMAP
78
78
E0
E0
E0
E0
E0
E0
E0
E0
E0
E0
E0
E0
ENDCHAR
STARTCHAR 0192
ENCODING 402
SWIDTH 565 0
DWIDTH 11 0
BBX 8 17 2 -4
BITMAP
0F
1E
18
38
7E
7E
30
30
70
70
70
60
60
E0
E0
C0
C0
ENDCHAR
STARTCHAR 01FA
ENCODING 506
SWIDTH 720 0
DWIDTH 14 0
BBX 12 20 1 0
BITMAP
0380
0700
0600
0E00
0900
1900
0900
0F00
0F00
1F00
1B80
1980
3980
31C0
70C0
7FE0
7FE0
E060
E070
C070
ENDCHAR
STARTCHAR 01FB
ENCODING 507
SWIDTH 565 0
DWIDTH 11 0
BBX 10 19 1 0
BITMAP
0700
0E00
1800
1C00
2400
2600
2400
1C00
0000
3E00
7F00
E700
0300
7F00
FF00
C300
C700
FFC0
79C0
ENDCHAR
STARTCHAR 01FC
ENCODING 508
SWIDTH 977 0
DWIDTH 19 0
BBX 18 17 0 0
BITMAP
000E00
001800
003000
000000
03FFC0
03FFC0
076000
066000
0E6000
0E7F80
1C7F80
1C6000
3FE000
3FE000
706000
707FC0
E07FC0
ENDCHAR
STARTCHAR 01FD
ENCODING 509
SWIDTH 874 0
DWIDTH 17 0
BBX 15 14 1 0
BITMAP
00E0
01C0
0300
0000
3EF8
7FFC
E38E
0386
7FFE
FFFE
C380
C78E
FDFC
78F8
ENDCHAR
STARTCHAR 01FE
ENCODING 510
SWIDTH 771 0
DWIDTH 15 0
BBX 13 17 1 0
BITMAP
0180
0300
0600
0000
1FB0
3FE0
70F0
E0F0
E1B8
E338
E638
E638
EC38
F870
70F0
3FE0
7F80
ENDCHAR
STARTCHAR 01FF
ENCODING 511
SWIDTH 617 0
DWIDTH 12 0
BBX 10 14 1 0
BITMAP
0700
0E00
1800
0000
3EC0
7F80
E380
E7C0
EDC0
F9C0
F1C0
E380
7F80
BE00
ENDCHAR
STARTCHAR 0218
ENCODING 536
SWIDTH 668 0
DWIDTH 13 0
BBX 11 18 1 -5
BITMAP
3F00
7FC0
E1C0
E0E0
E000
7E00
3FC0
03E0
00E0
C0E0
E0E0
7FC0
3F80
0000
0E00
0E00
0600
0400
ENDCHAR
STARTCHAR 0219
ENCODING 537
SWIDTH 565 0
DWIDTH 11 0
BBX 9 15 1 -5
BITMAP
3E00
FF00
C380
E000
7E00
3F00
0380
C380
FF00
7E00
0000
1C00
1C00
0800
0800
ENDCHAR
STARTCHAR 021A
ENCODING 538
SWIDTH 617 0
DWIDTH 12 0
BBX 11 18 0 -5
BITMAP
FFE0
FFE0
0E00
0E00
0E00
0E00
0E00
0E00
0E00
0E00
0E00
0E00
0E00
0000
0600
0600
0200
0400
ENDCHAR
STARTCHAR 021B
ENCODING 539
SWIDTH 308 0
DWIDTH 6 0
BBX 6 17 0 -5
BITMAP
30
30
FC
FC
70
70
70
70
70
70
3C
3C
00
38
38
10
10
ENDCHAR
STARTCHAR 02C6
ENCODING 710
SWIDTH 308 0
DWIDTH 6 0
BBX 7 3 0 11
BITMAP
38
6C
C6
ENDCHAR
STARTCHAR 02C7
ENCODING 711
SWIDTH 308 0
DWIDTH 6 0
BBX 7 3 0 11
BITMAP
C6
6C
38
ENDCHAR
STARTCHAR 02C9
ENCODING 713
SWIDTH 308 0
DWIDTH 6 0
BBX 6 2 0 11
BITMAP
FC
FC
ENDCHAR
STARTCHAR 02D8
ENCODING 728
SWIDTH 308 0
DWIDTH 6 0
BBX 6 3 0 11
BITMAP
8C
FC
78
ENDCHAR
STARTCHAR 02D9
ENCODING 729
SWIDTH 308 0
DWIDTH 6 0
BBX 2 3 2 11
BITMAP
C0
C0
C0
ENDCHAR
STARTCHAR 02DA
ENCODING 730
SWIDTH 308 0
DWIDTH 6 0
BBX 5 5 0 11
BITMAP
70
48
C8
48
70
ENDCHAR
STARTCHAR 02DB
ENCODING 731
SWIDTH 308 0
DWIDTH 6 0
BBX 3 4 1 -4
BITMAP
C0
80
80
E0
ENDCHAR
STARTCHAR 02DC
ENCODING 732
SWIDTH 308 0
DWIDTH 6 0
BBX 7 3 0 11
BITMAP
72
FE
9C
ENDCHAR
STARTCHAR 02DD
ENCODING 733
SWIDTH 308 0
DWIDTH 6 0
BBX 8 3 -1 11
BITMAP
33
66
CC
ENDCHAR
STARTCHAR 037E
ENCODING 894
SWIDTH 308 0
DWIDTH 6 0
BBX 3 13 2 -3
BITMAP
E0
E0
E0
00
00
00
00
E0
E0
E0
40
40
C0
ENDCHAR
STARTCHAR 0384
ENCODING 900
SWIDTH 308 0
DWIDTH 6 0
BBX 3 3 2 11
BITMAP
E0
C0
80
ENDCHAR
STARTCHAR 0385
ENCODING 901
SWIDTH 462 0
DWIDTH 9 0
BBX 7 4 1 11
BITMAP
18
DE
D6
F6
ENDCHAR
STARTCHAR 0386
ENCODING 902
SWIDTH 720 0
DWIDTH 14 0
BBX 13 13 0 0
BITMAP
6780
4780
CF80
0DC0
0CC0
1CC0
18E0
3860
3FF0
3FF0
7030
7038
6038
ENDCHAR
STARTCHAR 0387
ENCODING 903
SWIDTH 308 0
DWIDTH 6 0
BBX 3 3 2 5
BITMAP
E0
E0
E0
ENDCHAR
STARTCHAR 0388
ENCODING 904
SWIDTH 822 0
DWIDTH 16 0
BBX 15 13 0 0
BITMAP
67FE
67FE
C700
0700
0700
07FE
07FE
0700
0700
0700
0700
07FE
07FE
ENDCHAR
STARTCHAR 0389
ENCODING 905
SWIDTH 874 0
DWIDTH 17 0
BBX 16 13 0 0
BITMAP
6707
4707
C707
0707
0707
07FF
07FF
0707
0707
0707
0707
0707
0707
ENDCHAR
STARTCHAR 038A
ENCODING 906
SWIDTH 462 0
DWIDTH 9 0
BBX 8 13 0 0
BITMAP
67
47
C7
07
07
07
07
07
07
07
07
07
07
ENDCHAR
STARTCHAR 038C
ENCODING 908
SWIDTH 822 0
DWIDTH 16 0
BBX 15 13 0 0
BITMAP
E7E0
CFF8
9C3C
381C
380E
300E
300E
300E
380E
381C
1C3C
0FF8
07E0
ENDCHAR
STARTCHAR 038E
ENCODING 910
SWIDTH 925 0
DWIDTH 18 0
BBX 16 13 1 0
BITMAP
6607
C706
C30E
038C
019C
01D8
00F8
0070
0070
0070
0070
0070
0070
ENDCHAR
STARTCHAR 038F
ENCODING 911
SWIDTH 822 0
DWIDTH 16 0
BBX 15 13 0 0
BITMAP
C7E0
DFF8
9C3C
380E
380E
300E
380E
380E
381C
1E38
0770
7F7E
7F7E
ENDCHAR
STARTCHAR 0390
ENCODING 912
SWIDTH 257 0
DWIDTH 5 0
BBX 7 15 -1 0
BITMAP
18
DE
D6
D6
00
38
38
38
38
38
38
38
38
38
18
ENDCHAR
STARTCHAR 0391
ENCODING 913
SWIDTH 720 0
DWIDTH 14 0
BBX 12 13 1 0
BITMAP
0F00
0F00
1F00
1B80
1980
3980
31C0
70C0
7FE0
7FE0
E060
E070
C070
ENDCHAR
STARTCHAR 0392
ENCODING 914
SWIDTH 720 0
DWIDTH 14 0
BBX 12 13 1 0
BITMAP
FF80
FFE0
E0E0
E0E0
E0E0
FFC0
FFC0
E0E0
E070
E070
E0F0
FFE0
FFC0
ENDCHAR
STARTCHAR 0393
ENCODING 915
SWIDTH 565 0
DWIDTH 11 0
BBX 10 13 1 0
BITMAP
FFC0
FFC0
E000
E000
E000
E000
E000
E000
E000
E000
E000
E000
E000
ENDCHAR
STARTCHAR 0394
ENCODING 916
SWIDTH 720 0
DWIDTH 14 0
BBX 12 13 1 0
BITMAP
0F00
0F00
1F00
1B80
3980
39C0
31C0
70C0
70E0
E060
E070
FFF0
FFF0
ENDCHAR
STARTCHAR 0395
ENCODING 917
SWIDTH 668 0
DWIDTH 13 0
BBX 11 13 1 0
BITMAP
FFE0
FFE0
E000
E000
E000
FFC0
FFC0
E000
E000
E000
E000
FFE0
FFE0
ENDCHAR
STARTCHAR 0396
ENCODING 918
SWIDTH 617 0
DWIDTH 12 0
BBX 10 13 1 0
BITMAP
FFC0
FFC0
0380
0700
0700
0E00
1C00
3800
3800
7000
E000
FFC0
FFC0
ENDCHAR
STARTCHAR 0397
ENCODING 919
SWIDTH 720 0
DWIDTH 14 0
BBX 11 13 1 0
BITMAP
E060
E060
E060
E060
E060
FFE0
FFE0
E060
E060
E060
E060
E060
E060
ENDCHAR
STARTCHAR 0398
ENCODING 920
SWIDTH 771 0
DWIDTH 15 0
BBX 13 13 1 0
BITMAP
1F80
3FE0
70F0
E070
E038
EFB8
EFB8
E038
E038
E070
70F0
3FE0
1F80
ENDCHAR
STARTCHAR 0399
ENCODING 921
SWIDTH 257 0
DWIDTH 5 0
BBX 3 13 1 0
BITMAP
E0
E0
E0
E0
E0
E0
E0
E0
E0
E0
E0
E0
E0
ENDCHAR
STARTCHAR 039A
ENCODING 922
SWIDTH 720 0
DWIDTH 14 0
BBX 12 13 1 0
BITMAP
E0F0
E1E0
E3C0
E780
EF00
FE00
FE00
F700
E380
E1C0
E1E0
E0E0
E070
ENDCHAR
STARTCHAR 039B
ENCODING 923
SWIDTH 668 0
DWIDTH 13 0
BBX 12 13 0 0
BITMAP
0700
0F00
0F80
0D80
1D80
19C0
18C0
38E0
30E0
7060
7070
6070
E030
ENDCHAR
STARTCHAR 039C
ENCODING 924
SWIDTH 822 0
DWIDTH 16 0
BBX 14 13 1 0
BITMAP
F03C
F07C
F87C
F87C
F87C
ECDC
ECDC
ECDC
E79C
E79C
E79C
E71C
E31C
ENDCHAR
STARTCHAR 039D
ENCODING 925
SWIDTH 720 0
DWIDTH 14 0
BBX 11 13 1 0
BITMAP
F060
F060
F860
F860
FC60
EE60
E660
E760
E360
E3E0
E1E0
E1E0
E0E0
ENDCHAR
STARTCHAR 039E
ENCODING 926
SWIDTH 617 0
DWIDTH 12 0
BBX 10 13 1 0
BITMAP
FFC0
FFC0
0000
0000
0000
7F80
7F80
0000
0000
0000
0000
FFC0
FFC0
ENDCHAR
STARTCHAR 039F
ENCODING 927
SWIDTH 771 0
DWIDTH 15 0
BBX 13 13 1 0
BITMAP
1F80
3FE0
70F0
E070
E038
E038
E038
E038
E038
E070
70F0
3FE0
1F80
ENDCHAR
STARTCHAR 03A0
ENCODING 928
SWIDTH 720 0
DWIDTH 14 0
BBX 11 13 1 0
BITMAP
FFE0
FFE0
E060
E060
E060
E060
E060
E060
E060
E060
E060
E060
E060
ENDCHAR
STARTCHAR 03A1
ENCODING 929
SWIDTH 668 0
DWIDTH 13 0
BBX 11 13 1 0
BITMAP
FF80
FFC0
E0E0
E0E0
E0E0
FFC0
FF80
E000
E000
E000
E000
E000
E000
ENDCHAR
STARTCHAR 03A3
ENCODING 931
SWIDTH 565 0
DWIDTH 11 0
BBX 10 13 1 0
BITMAP
FF80
FF80
E000
7000
3800
1C00
0C00
1C00
3800
7000
E000
FFC0
FFC0
ENDCHAR
STARTCHAR 03A4
ENCODING 932
SWIDTH 617 0
DWIDTH 12 0
BBX 11 13 0 0
BITMAP
FFE0
FFE0
0E00
0E00
0E00
0E00
0E00
0E00
0E00
0E00
0E00
0E00
0E00
ENDCHAR
STARTCHAR 03A5
ENCODING 933
SWIDTH 668 0
DWIDTH 13 0
BBX 11 13 1 0
BITMAP
C0E0
E0C0
61C0
7180
3B80
1B00
1F00
0E00
0E00
0E00
0E00
0E00
0E00
ENDCHAR
STARTCHAR 03A6
ENCODING 934
SWIDTH 822 0
DWIDTH 16 0
BBX 14 13 1 0
BITMAP
0300
3FE0
7FF8
E33C
E31C
C31C
C31C
E31C
E338
7FF8
3FE0
0300
0300
ENDCHAR
STARTCHAR 03A7
ENCODING 935
SWIDTH 668 0
DWIDTH 13 0
BBX 11 13 1 0
BITMAP
E0E0
61C0
71C0
3B80
3B00
1F00
0E00
1F00
3B00
3380
71C0
E0C0
C0E0
ENDCHAR
STARTCHAR 03A8
ENCODING 936
SWIDTH 771 0
DWIDTH 15 0
BBX 13 13 1 0
BITMAP
C718
C718
C718
C718
C718
E718
E738
7FF8
3FE0
0700
0700
0700
0700
ENDCHAR
STARTCHAR 03A9
ENCODING 937
SWIDTH 771 0
DWIDTH 15 0
BBX 13 13 1 0
BITMAP
1FC0
3FE0
7070
E038
E038
E038
E038
E038
7070
38F0
1DC0
FDF8
FDF8
ENDCHAR
STARTCHAR 03AA
ENCODING 938
SWIDTH 257 0
DWIDTH 5 0
BBX 6 17 0 0
BITMAP
8C
8C
8C
00
70
70
70
70
70
70
70
70
70
70
70
70
70
ENDCHAR
STARTCHAR 03AB
ENCODING 939
SWIDTH 668 0
DWIDTH 13 0
BBX 11 17 1 0
BITMAP
3300
3300
3300
0000
C0E0
E0C0
61C0
7180
3B80
1B00
1F00
0E00
0E00
0E00
0E00
0E00
0E00
ENDCHAR
STARTCHAR 03AC
ENCODING 940
SWIDTH 617 0
DWIDTH 12 0
BBX 10 14 1 0
BITMAP
0E00
0C00
0800
0000
3CC0
7EC0
E780
E380
C380
C380
E380
E780
7DC0
3DC0
ENDCHAR
STARTCHAR 03AD
ENCODING 941
SWIDTH 462 0
DWIDTH 9 0
BBX 8 14 1 0
BITMAP
1C
18
10
00
7C
FE
E2
E0
7C
7C
E0
E2
FF
7C
ENDCHAR
STARTCHAR 03AE
ENCODING 942
SWIDTH 617 0
DWIDTH 12 0
BBX 9 18 1 -4
BITMAP
0600
0400
0C00
0000
EF00
FF80
F380
E180
E180
E180
E180
E180
E180
E180
0180
0180
0180
0180
ENDCHAR
STARTCHAR 03AF
ENCODING 943
SWIDTH 257 0
DWIDTH 5 0
BBX 4 14 1 0
BITMAP
70
60
40
00
E0
E0
E0
E0
E0
E0
E0
E0
E0
60
ENDCHAR
STARTCHAR 03B0
ENCODING 944
SWIDTH 565 0
DWIDTH 11 0
BBX 9 15 1 0
BITMAP
0C00
6F00
6B00
6B00
0000
E300
E380
E380
E180
E180
E180
E380
E380
7F00
3E00
ENDCHAR
STARTCHAR 03B1
ENCODING 945
SWIDTH 617 0
DWIDTH 12 0
BBX 10 10 1 0
BITMAP
3CC0
7EC0
E780
E380
C380
C380
E380
E780
7DC0
3DC0
ENDCHAR
STARTCHAR 03B2
ENCODING 946
SWIDTH 617 0
DWIDTH 12 0
BBX 10 18 1 -4
BITMAP
3E00
7F80
7380
E180
E380
E380
EF00
EF80
E1C0
E1C0
E1C0
E1C0
FF80
EF00
E000
E000
E000
E000
ENDCHAR
STARTCHAR 03B3
ENCODING 947
SWIDTH 565 0
DWIDTH 11 0
BBX 10 14 0 -4
BITMAP
E0C0
61C0
71C0
7180
3380
3B00
1B00
1F00
1E00
0E00
0E00
0C00
1C00
1C00
ENDCHAR
STARTCHAR 03B4
ENCODING 948
SWIDTH 617 0
DWIDTH 12 0
BBX 10 14 1 0
BITMAP
7F80
7F80
3800
0C00
1E00
7300
6380
E180
E1C0
E1C0
E1C0
E380
7F80
3E00
ENDCHAR
STARTCHAR 03B5
ENCODING 949
SWIDTH 462 0
DWIDTH 9 0
BBX 8 10 1 0
BITMAP
7C
FE
E2
E0
7C
7C
E0
E2
FF
7C
ENDCHAR
STARTCHAR 03B6
ENCODING 950
SWIDTH 462 0
DWIDTH 9 0
BBX 7 18 1 -4
BITMAP
7E
7E
0E
1C
18
30
60
60
C0
C0
C0
E0
F8
7E
0E
06
06
06
ENDCHAR
STARTCHAR 03B7
ENCODING 951
SWIDTH 617 0
DWIDTH 12 0
BBX 9 14 1 -4
BITMAP
EF00
FF80
F380
E180
E180
E180
E180
E180
E180
E180
0180
0180
0180
0180
ENDCHAR
STARTCHAR 03B8
ENCODING 952
SWIDTH 514 0
DWIDTH 10 0
BBX 8 14 1 0
BITMAP
3C
7E
67
E3
C3
C3
FF
FF
C3
C3
E3
67
7E
3C
ENDCHAR
STARTCHAR 03B9
ENCODING 953
SWIDTH 257 0
DWIDTH 5 0
BBX 3 10 1 0
BITMAP
E0
E0
E0
E0
E0
E0
E0
E0
E0
60
ENDCHAR
STARTCHAR 03BA
ENCODING 954
SWIDTH 565 0
DWIDTH 11 0
BBX 9 10 1 0
BITMAP
E380
E700
E600
EC00
FC00
FE00
E600
E700
E380
E380
ENDCHAR
STARTCHAR 03BB
ENCODING 955
SWIDTH 565 0
DWIDTH 11 0
BBX 10 14 0 0
BITMAP
7800
7C00
1C00
0E00
0E00
0E00
0F00
1F00
1B00
3B80
3380
7180
71C0
E1C0
ENDCHAR
STARTCHAR 03BC
ENCODING 956
SWIDTH 617 0
DWIDTH 12 0
BBX 9 14 1 -4
BITMAP
E180
E180
E180
E180
E180
E180
E380
E380
FF80
FD80
E000
E000
E000
E000
ENDCHAR
STARTCHAR 03BD
ENCODING 957
SWIDTH 565 0
DWIDTH 11 0
BBX 10 10 0 0
BITMAP
E180
61C0
71C0
71C0
3180
3380
3B00
1F00
1E00
1C00
ENDCHAR
STARTCHAR 03BE
ENCODING 958
SWIDTH 411 0
DWIDTH 8 0
BBX 7 18 1 -4
BITMAP
FC
FC
30
60
60
70
3C
3C
60
C0
C0
C0
F8
7E
1E
06
06
06
ENDCHAR
STARTCHAR 03BF
ENCODING 959
SWIDTH 617 0
DWIDTH 12 0
BBX 10 10 1 0
BITMAP
3E00
7F80
E380
E1C0
E1C0
E1C0
E1C0
E380
7F80
3E00
ENDCHAR
STARTCHAR 03C0
ENCODING 960
SWIDTH 771 0
DWIDTH 15 0
BBX 14 10 0 0
BITMAP
FFFC
FFFC
1C70
1C70
1C70
1870
1870
1870
3878
383C
ENDCHAR
STARTCHAR 03C1
ENCODING 961
SWIDTH 617 0
DWIDTH 12 0
BBX 10 14 1 -4
BITMAP
3E00
7F80
7380
E1C0
E1C0
E1C0
E1C0
F1C0
FF80
EF00
E000
E000
E000
E000
ENDCHAR
STARTCHAR 03C2
ENCODING 962
SWIDTH 514 0
DWIDTH 10 0
BBX 8 14 1 -4
BITMAP
1E
7F
72
E0
C0
C0
C0
E0
F8
7E
0F
03
03
02
ENDCHAR
STARTCHAR 03C3
ENCODING 963
SWIDTH 668 0
DWIDTH 13 0
BBX 12 10 1 0
BITMAP
1FF0
7FF0
F380
E180
E1C0
C1C0
E1C0
E3C0
7F80
3F00
ENDCHAR
STARTCHAR 03C4
ENCODING 964
SWIDTH 411 0
DWIDTH 8 0
BBX 8 10 0 0
BITMAP
FF
FF
18
18
18
18
18
18
1E
0E
ENDCHAR
STARTCHAR 03C5
ENCODING 965
SWIDTH 565 0
DWIDTH 11 0
BBX 9 10 1 0
BITMAP
E300
E380
E380
E180
E180
E180
E380
E380
7F00
3E00
ENDCHAR
STARTCHAR 03C6
ENCODING 966
SWIDTH 720 0
DWIDTH 14 0
BBX 12 14 1 -4
BITMAP
33C0
77E0
E660
E670
C670
C670
E670
E6E0
7FE0
3F80
0600
0600
0600
0600
ENDCHAR
STARTCHAR 03C7
ENCODING 967
SWIDTH 565 0
DWIDTH 11 0
BBX 11 14 0 -4
BITMAP
F0C0
F1C0
3980
1B80
1F00
0F00
0E00
0E00
1F00
1B80
3B80
31C0
71C0
E0E0
ENDCHAR
STARTCHAR 03C8
ENCODING 968
SWIDTH 720 0
DWIDTH 14 0
BBX 12 16 1 -4
BITMAP
0600
0600
E630
E630
E630
E630
E630
E630
E670
E670
7FE0
3FC0
0600
0600
0600
0600
ENDCHAR
STARTCHAR 03C9
ENCODING 969
SWIDTH 822 0
DWIDTH 16 0
BBX 14 10 1 0
BITMAP
1860
7878
F03C
E01C
C30C
C30C
E30C
E79C
7FF8
3CF0
ENDCHAR
STARTCHAR 03CA
ENCODING 970
SWIDTH 257 0
DWIDTH 5 0
BBX 6 14 0 0
BITMAP
CC
CC
CC
00
70
70
70
70
70
70
70
70
70
30
ENDCHAR
STARTCHAR 03CB
ENCODING 971
SWIDTH 565 0
DWIDTH 11 0
BBX 9 14 1 0
BITMAP
6600
6600
6600
0000
E300
E380
E380
E180
E180
E180
E380
E380
7F00
3E00
ENDCHAR
STARTCHAR 03CC
ENCODING 972
SWIDTH 617 0
DWIDTH 12 0
BBX 10 14 1 0
BITMAP
0E00
0C00
0800
0000
3E00
7F80
E380
E1C0
E1C0
E1C0
E1C0
E380
7F80
3E00
ENDCHAR
STARTCHAR 03CD
ENCODING 973
SWIDTH 565 0
DWIDTH 11 0
BBX 9 14 1 0
BITMAP
0C00
0800
1800
0000
E300
E380
E380
E180
E180
E180
E380
E380
7F00
3E00
ENDCHAR
STARTCHAR 03CE
ENCODING 974
SWIDTH 822 0
DWIDTH 16 0
BBX 14 14 1 0
BITMAP
0180
0100
0300
0000
1860
7878
F03C
E01C
C30C
C30C
E30C
E79C
7FF8
3CF0
ENDCHAR
STARTCHAR 0401
ENCODING 1025
SWIDTH 668 0
DWIDTH 13 0
BBX 11 17 1 0
BITMAP
1180
1180
1180
0000
FFE0
FFE0
E000
E000
E000
FFC0
FFC0
E000
E000
E000
E000
FFE0
FFE0
ENDCHAR
STARTCHAR 0402
ENCODING 1026
SWIDTH 874 0
DWIDTH 17 0
BBX 16 13 0 0
BITMAP
FFE0
FFE0
0E00
0E00
0EFC
0FFE
0F07
0E07
0E07
0E07
0E47
0EFE
0E7C
ENDCHAR
STARTCHAR 0403
ENCODING 1027
SWIDTH 565 0
DWIDTH 11 0
BBX 9 17 1 0
BITMAP
0700
0E00
1800
0000
FF80
FF80
E000
E000
E000
E000
E000
E000
E000
E000
E000
E000
E000
ENDCHAR
STARTCHAR 0404
ENCODING 1028
SWIDTH 720 0
DWIDTH 14 0
BBX 12 13 1 0
BITMAP
1F80
3FE0
70E0
E060
E000
FF00
FF00
E000
E000
E060
70F0
3FE0
1F80
ENDCHAR
STARTCHAR 0405
ENCODING 1029
SWIDTH 668 0
DWIDTH 13 0
BBX 11 13 1 0
BITMAP
3F00
7FC0
E1C0
E0E0
E000
7E00
3FC0
03E0
00E0
C0E0
E0E0
7FC0
3F80
ENDCHAR
STARTCHAR 0406
ENCODING 1030
SWIDTH 257 0
DWIDTH 5 0
BBX 3 13 1 0
BITMAP
E0
E0
E0
E0
E0
E0
E0
E0
E0
E0
E0
E0
E0
ENDCHAR
STARTCHAR 0407
ENCODING 1031
SWIDTH 257 0
DWIDTH 5 0
BBX 6 17 0 0
BITMAP
8C
8C
8C
00
70
70
70
70
70
70
70
70
70
70
70
70
70
ENDCHAR
STARTCHAR 0408
ENCODING 1032
SWIDTH 565 0
DWIDTH 11 0
BBX 9 13 0 0
BITMAP
0F80
0F80
0180
0180
0180
0180
0180
0180
0180
E180
7380
7F00
3E00
ENDCHAR
STARTCHAR 0409
ENCODING 1033
SWIDTH 1080 0
DWIDTH 21 0
BBX 20 13 0 0
BITMAP
1FF000
1FF000
1C7000
187000
187000
387FC0
387FE0
387070
387070
307070
707070
F07FE0
E07FC0
ENDCHAR
STARTCHAR 040A
ENCODING 1034
SWIDTH 1028 0
DWIDTH 20 0
BBX 18 13 1 0
BITMAP
E0E000
E0E000
E0E000
E0E000
E0E000
FFFF80
FFFFC0
E0E1C0
E0E0C0
E0E0C0
E0E1C0
E0FFC0
E0FF00
ENDCHAR
STARTCHAR 040B
ENCODING 1035
SWIDTH 874 0
DWIDTH 17 0
BBX 15 13 0 0
BITMAP
FFE0
FFE0
0E00
0E00
0EF8
0FFE
0E0E
0E06
0E06
0E06
0E06
0E06
0E06
ENDCHAR
STARTCHAR 040C
ENCODING 1036
SWIDTH 617 0
DWIDTH 12 0
BBX 10 17 1 0
BITMAP
0300
0600
0C00
0000
E1C0
E180
E380
E700
E600
EE00
FC00
FE00
E700
E700
E380
E1C0
E1C0
ENDCHAR
STARTCHAR 040E
ENCODING 1038
SWIDTH 617 0
DWIDTH 12 0
BBX 12 17 0 0
BITMAP
31C0
3F80
1F00
0000
E070
7060
70E0
38C0
19C0
1D80
0F80
0F00
0700
0600
0E00
7C00
7800
ENDCHAR
STARTCHAR 040F
ENCODING 1039
SWIDTH 720 0
DWIDTH 14 0
BBX 11 17 1 -4
BITMAP
E060
E060
E060
E060
E060
E060
E060
E060
E060
E060
E060
FFE0
FFE0
0600
0600
0600
0600
ENDCHAR
STARTCHAR 0410
ENCODING 1040
SWIDTH 720 0
DWIDTH 14 0
BBX 12 13 1 0
BITMAP
0F00
0F00
1F00
1B80
1980
3980
31C0
70C0
7FE0
7FE0
E060
E070
C070
ENDCHAR
STARTCHAR 0411
ENCODING 1041
SWIDTH 720 0
DWIDTH 14 0
BBX 12 13 1 0
BITMAP
FFC0
FFC0
E000
E000
E000
FFC0
FFE0
E070
E070
E070
E070
FFE0
FFC0
ENDCHAR
STARTCHAR 0412
ENCODING 1042
SWIDTH 720 0
DWIDTH 14 0
BBX 12 13 1 0
BITMAP
FF80
FFE0
E0E0
E0E0
E0E0
FFC0
FFC0
E0E0
E070
E070
E0F0
FFE0
FFC0
ENDCHAR
STARTCHAR 0413
ENCODING 1043
SWIDTH 565 0
DWIDTH 11 0
BBX 9 13 1 0
BITMAP
FF80
FF80
E000
E000
E000
E000
E000
E000
E000
E000
E000
E000
E000
ENDCHAR
STARTCHAR 0414
ENCODING 1044
SWIDTH 720 0
DWIDTH 14 0
BBX 13 17 0 -4
BITMAP
0FE0
0FE0
0C60
0C60
0C60
1C60
1C60
1C60
1860
3860
3860
FFF8
FFF8
C018
C018
C018
C018
ENDCHAR
STARTCHAR 0415
ENCODING 1045
SWIDTH 668 0
DWIDTH 13 0
BBX 11 13 1 0
BITMAP
FFE0
FFE0
E000
E000
E000
FFC0
FFC0
E000
E000
E000
E000
FFE0
FFE0
ENDCHAR
STARTCHAR 0416
ENCODING 1046
SWIDTH 874 0
DWIDTH 17 0
BBX 17 13 0 0
BITMAP
61C380
71C700
39C600
39CE00
1DCC00
0DDC00
0FF800
1FFC00
1DCC00
39CE00
71C700
71C300
E1C380
ENDCHAR
STARTCHAR 0417
ENCODING 1047
SWIDTH 617 0
DWIDTH 12 0
BBX 10 13 1 0
BITMAP
3F00
7F80
E1C0
C1C0
0180
0F00
0F80
01C0
01C0
01C0
C1C0
FF80
3F00
ENDCHAR
STARTCHAR 0418
ENCODING 1048
SWIDTH 720 0
DWIDTH 14 0
BBX 11 13 1 0
BITMAP
E0E0
E1E0
E1E0
E3E0
E360
E760
E660
EC60
FC60
F860
F860
F060
F060
ENDCHAR
STARTCHAR 0419
ENCODING 1049
SWIDTH 720 0
DWIDTH 14 0
BBX 11 17 1 0
BITMAP
31C0
3F80
1F00
0000
E0E0
E1E0
E1E0
E3E0
E360
E760
E660
EC60
FC60
F860
F860
F060
F060
ENDCHAR
STARTCHAR 041A
ENCODING 1050
SWIDTH 617 0
DWIDTH 12 0
BBX 10 13 1 0
BITMAP
E1C0
E180
E380
E700
E600
EE00
FC00
FE00
E700
E700
E380
E1C0
E1C0
ENDCHAR
STARTCHAR 041B
ENCODING 1051
SWIDTH 668 0
DWIDTH 13 0
BBX 12 13 0 0
BITMAP
1FF0
1FF0
1C70
1870
1870
3870
3870
3870
3870
3070
7070
F070
E070
ENDCHAR
STARTCHAR 041C
ENCODING 1052
SWIDTH 822 0
DWIDTH 16 0
BBX 14 13 1 0
BITMAP
F03C
F07C
F87C
F87C
F87C
ECDC
ECDC
ECDC
E79C
E79C
E79C
E71C
E31C
ENDCHAR
STARTCHAR 041D
ENCODING 1053
SWIDTH 720 0
DWIDTH 14 0
BBX 11 13 1 0
BITMAP
E060
E060
E060
E060
E060
FFE0
FFE0
E060
E060
E060
E060
E060
E060
ENDCHAR
STARTCHAR 041E
ENCODING 1054
SWIDTH 771 0
DWIDTH 15 0
BBX 13 13 1 0
BITMAP
1F80
3FE0
70F0
E070
E038
E038
E038
E038
E038
E070
70F0
3FE0
1F80
ENDCHAR
STARTCHAR 041F
ENCODING 1055
SWIDTH 720 0
DWIDTH 14 0
BBX 11 13 1 0
BITMAP
FFE0
FFE0
E060
E060
E060
E060
E060
E060
E060
E060
E060
E060
E060
ENDCHAR
STARTCHAR 0420
ENCODING 1056
SWIDTH 668 0
DWIDTH 13 0
BBX 11 13 1 0
BITMAP
FF80
FFC0
E0E0
E0E0
E0E0
FFC0
FF80
E000
E000
E000
E000
E000
E000
ENDCHAR
STARTCHAR 0421
ENCODING 1057
SWIDTH 720 0
DWIDTH 14 0
BBX 12 13 1 0
BITMAP
1F80
3FE0
70F0
E070
E000
E000
E000
E000
E000
E020
70F0
3FE0
1F80
ENDCHAR
STARTCHAR 0422
ENCODING 1058
SWIDTH 617 0
DWIDTH 12 0
BBX 11 13 0 0
BITMAP
FFE0
FFE0
0E00
0E00
0E00
0E00
0E00
0E00
0E00
0E00
0E00
0E00
0E00
ENDCHAR
STARTCHAR 0423
ENCODING 1059
SWIDTH 617 0
DWIDTH 12 0
BBX 12 13 0 0
BITMAP
E070
7060
70E0
38C0
19C0
1D80
0D80
0F00
0700
0600
0E00
7C00
7800
ENDCHAR
STARTCHAR 0424
ENCODING 1060
SWIDTH 822 0
DWIDTH 16 0
BBX 15 13 1 0
BITMAP
0300
0300
3FF0
7FF8
E31C
E30C
C30E
E30C
E31C
7FF8
3FF0
0300
0300
ENDCHAR
STARTCHAR 0425
ENCODING 1061
SWIDTH 668 0
DWIDTH 13 0
BBX 11 13 1 0
BITMAP
E0E0
61C0
71C0
3B80
3B00
1F00
0E00
1F00
3B00
3380
71C0
E0C0
C0E0
ENDCHAR
STARTCHAR 0426
ENCODING 1062
SWIDTH 720 0
DWIDTH 14 0
BBX 13 17 1 -4
BITMAP
E0E0
E0E0
E0E0
E0E0
E0E0
E0E0
E0E0
E0E0
E0E0
E0E0
E0E0
FFF8
FFF8
0038
0038
0038
0038
ENDCHAR
STARTCHAR 0427
ENCODING 1063
SWIDTH 668 0
DWIDTH 13 0
BBX 11 13 1 0
BITMAP
E0E0
E0E0
E0E0
E0E0
E0E0
E0E0
E0E0
7FE0
3FE0
00E0
00E0
00E0
00E0
ENDCHAR
STARTCHAR 0428
ENCODING 1064
SWIDTH 977 0
DWIDTH 19 0
BBX 17 13 1 0
BITMAP
E1C380
E1C380
E1C380
E1C380
E1C380
E1C380
E1C380
E1C380
E1C380
E1C380
E1C380
FFFF80
FFFF80
ENDCHAR
STARTCHAR 0429
ENCODING 1065
SWIDTH 977 0
DWIDTH 19 0
BBX 18 17 1 -4
BITMAP
E1C300
E1C300
E1C300
E1C300
E1C300
E1C300
E1C300
E1C300
E1C300
E1C300
E1C300
FFFFC0
FFFFC0
0000C0
0000C0
0000C0
0000C0
ENDCHAR
STARTCHAR 042A
ENCODING 1066
SWIDTH 874 0
DWIDTH 17 0
BBX 16 13 0 0
BITMAP
FE00
FE00
0E00
0E00
0E00
0FFC
0FFE
0E0F
0E07
0E07
0E0F
0FFE
0FFC
ENDCHAR
STARTCHAR 042B
ENCODING 1067
SWIDTH 977 0
DWIDTH 19 0
BBX 16 13 1 0
BITMAP
E003
E003
E003
E003
E003
FFC3
FFE3
E0E3
E073
E073
E0E3
FFE3
FF83
ENDCHAR
STARTCHAR 042C
ENCODING 1068
SWIDTH 720 0
DWIDTH 14 0
BBX 12 13 1 0
BITMAP
E000
E000
E000
E000
E000
FFC0
FFE0
E070
E070
E070
E070
FFE0
FFC0
ENDCHAR
STARTCHAR 042D
ENCODING 1069
SWIDTH 720 0
DWIDTH 14 0
BBX 12 13 1 0
BITMAP
3F00
7FC0
E1E0
C0E0
0070
0FF0
0FF0
0070
0070
C0E0
E1E0
7FC0
3F00
ENDCHAR
STARTCHAR 042E
ENCODING 1070
SWIDTH 1028 0
DWIDTH 20 0
BBX 18 13 1 0
BITMAP
E07C00
E1FF00
E3C780
E38380
E381C0
FF01C0
FF01C0
E301C0
E381C0
E38380
E1C780
E0FF00
E07C00
ENDCHAR
STARTCHAR 042F
ENCODING 1071
SWIDTH 720 0
DWIDTH 14 0
BBX 11 13 1 0
BITMAP
3FE0
7FE0
E060
E060
E060
E060
7FE0
1FE0
3860
3860
7060
E060
E060
ENDCHAR
STARTCHAR 0430
ENCODING 1072
SWIDTH 565 0
DWIDTH 11 0
BBX 10 10 1 0
BITMAP
3E00
7F00
E700
0300
7F00
FF00
C300
C700
FFC0
79C0
ENDCHAR
STARTCHAR 0431
ENCODING 1073
SWIDTH 617 0
DWIDTH 12 0
BBX 10 14 1 0
BITMAP
0380
1F80
7C00
6000
DF00
FF80
A1C0
E1C0
E1C0
E1C0
E1C0
E1C0
7F80
3F00
ENDCHAR
STARTCHAR 0432
ENCODING 1074
SWIDTH 617 0
DWIDTH 12 0
BBX 10 10 1 0
BITMAP
FF00
FF80
E1C0
E180
FF00
FF80
E1C0
E1C0
FFC0
FF00
ENDCHAR
STARTCHAR 0433
ENCODING 1075
SWIDTH 411 0
DWIDTH 8 0
BBX 6 10 1 0
BITMAP
FC
FC
E0
E0
E0
E0
E0
E0
E0
E0
ENDCHAR
STARTCHAR 0434
ENCODING 1076
SWIDTH 617 0
DWIDTH 12 0
BBX 12 14 0 -4
BITMAP
1FC0
1FC0
18C0
18C0
18C0
38C0
38C0
30C0
FFF0
FFF0
C070
C070
C070
C070
ENDCHAR
STARTCHAR 0435
ENCODING 1077
SWIDTH 565 0
DWIDTH 11 0
BBX 9 10 1 0
BITMAP
3E00
7F00
E300
E380
FF80
FF80
E000
E380
7F00
3E00
ENDCHAR
STARTCHAR 0436
ENCODING 1078
SWIDTH 668 0
DWIDTH 13 0
BBX 13 10 0 0
BITMAP
E318
6338
7330
3370
1FE0
3FE0
3370
7330
6338
E318
ENDCHAR
STARTCHAR 0437
ENCODING 1079
SWIDTH 462 0
DWIDTH 9 0
BBX 8 10 1 0
BITMAP
7C
FE
C6
06
3C
3E
07
C7
FE
7C
ENDCHAR
STARTCHAR 0438
ENCODING 1080
SWIDTH 617 0
DWIDTH 12 0
BBX 9 10 1 0
BITMAP
E380
E380
E780
E780
ED80
ED80
F980
F980
F180
E180
ENDCHAR
STARTCHAR 0439
ENCODING 1081
SWIDTH 617 0
DWIDTH 12 0
BBX 9 14 1 0
BITMAP
6380
3F00
3E00
0000
E380
E380
E780
E780
ED80
ED80
F980
F980
F180
E180
ENDCHAR
STARTCHAR 043A
ENCODING 1082
SWIDTH 514 0
DWIDTH 10 0
BBX 8 10 1 0
BITMAP
E3
E7
E6
EE
FC
FC
EE
E6
E7
E3
ENDCHAR
STARTCHAR 043B
ENCODING 1083
SWIDTH 617 0
DWIDTH 12 0
BBX 11 10 0 0
BITMAP
1FE0
1FE0
18E0
18E0
38E0
38E0
38E0
30E0
F0E0
E0E0
ENDCHAR
STARTCHAR 043C
ENCODING 1084
SWIDTH 720 0
DWIDTH 14 0
BBX 12 10 1 0
BITMAP
F0F0
F0F0
F8B0
F9F0
F9F0
ED70
EF70
EF70
E770
E670
ENDCHAR
STARTCHAR 043D
ENCODING 1085
SWIDTH 565 0
DWIDTH 11 0
BBX 9 10 1 0
BITMAP
E180
E180
E180
E180
FF80
FF80
E180
E180
E180
E180
ENDCHAR
STARTCHAR 043E
ENCODING 1086
SWIDTH 617 0
DWIDTH 12 0
BBX 10 10 1 0
BITMAP
3E00
7F80
E380
E1C0
E1C0
E1C0
E1C0
E380
7F80
3E00
ENDCHAR
STARTCHAR 043F
ENCODING 1087
SWIDTH 565 0
DWIDTH 11 0
BBX 9 10 1 0
BITMAP
FF80
FF80
E180
E180
E180
E180
E180
E180
E180
E180
ENDCHAR
STARTCHAR 0440
ENCODING 1088
SWIDTH 617 0
DWIDTH 12 0
BBX 10 14 1 -4
BITMAP
EF00
FF80
F380
E1C0
E1C0
E1C0
E1C0
F380
FF80
EF00
E000
E000
E000
E000
ENDCHAR
STARTCHAR 0441
ENCODING 1089
SWIDTH 565 0
DWIDTH 11 0
BBX 9 10 1 0
BITMAP
3E00
7F00
E380
E000
C000
E000
E380
E380
7F00
3E00
ENDCHAR
STARTCHAR 0442
ENCODING 1090
SWIDTH 462 0
DWIDTH 9 0
BBX 8 10 1 0
BITMAP
FF
FF
38
38
38
38
38
38
38
38
ENDCHAR
STARTCHAR 0443
ENCODING 1091
SWIDTH 565 0
DWIDTH 11 0
BBX 10 14 0 -4
BITMAP
E0C0
61C0
71C0
3180
3380
3B00
1B00
1F00
0E00
0E00
0E00
1C00
7C00
7800
ENDCHAR
STARTCHAR 0444
ENCODING 1092
SWIDTH 874 0
DWIDTH 17 0
BBX 15 18 1 -4
BITMAP
0380
0380
0380
0380
3BB8
7FFC
E78E
E38E
C38E
C30E
E38E
E78E
7F7C
7BB8
0380
0380
0380
0380
ENDCHAR
STARTCHAR 0445
ENCODING 1093
SWIDTH 565 0
DWIDTH 11 0
BBX 10 10 0 0
BITMAP
61C0
7380
3B00
1F00
0E00
1E00
1F00
3B80
7180
E1C0
ENDCHAR
STARTCHAR 0446
ENCODING 1094
SWIDTH 617 0
DWIDTH 12 0
BBX 11 14 1 -4
BITMAP
E180
E180
E180
E180
E180
E180
E180
E180
FFE0
FFE0
00E0
00E0
00E0
00E0
ENDCHAR
STARTCHAR 0447
ENCODING 1095
SWIDTH 565 0
DWIDTH 11 0
BBX 9 10 1 0
BITMAP
C380
C380
C380
C380
E380
FF80
7B80
0380
0380
0380
ENDCHAR
STARTCHAR 0448
ENCODING 1096
SWIDTH 822 0
DWIDTH 16 0
BBX 13 10 1 0
BITMAP
E318
E318
E318
E318
E318
E318
E318
E318
FFF8
FFF8
ENDCHAR
STARTCHAR 0449
ENCODING 1097
SWIDTH 822 0
DWIDTH 16 0
BBX 15 14 1 -4
BITMAP
E318
E318
E318
E318
E318
E318
E318
E318
FFFE
FFFE
0006
0006
0006
0006
ENDCHAR
STARTCHAR 044A
ENCODING 1098
SWIDTH 720 0
DWIDTH 14 0
BBX 13 10 0 0
BITMAP
FC00
FC00
0C00
0C00
0FF0
0FF8
0C38
0C38
0FF8
0FE0
ENDCHAR
STARTCHAR 044B
ENCODING 1099
SWIDTH 822 0
DWIDTH 16 0
BBX 14 10 1 0
BITMAP
E01C
E01C
E01C
E01C
FF1C
FFDC
E1DC
E1DC
FF9C
FF1C
ENDCHAR
STARTCHAR 044C
ENCODING 1100
SWIDTH 617 0
DWIDTH 12 0
BBX 10 10 1 0
BITMAP
E000
E000
E000
E000
FF00
FFC0
E1C0
E1C0
FF80
FF00
ENDCHAR
STARTCHAR 044D
ENCODING 1101
SWIDTH 565 0
DWIDTH 11 0
BBX 9 10 1 0
BITMAP
3C00
FF00
C700
0380
1F80
1F80
0380
C700
FF00
7C00
ENDCHAR
STARTCHAR 044E
ENCODING 1102
SWIDTH 822 0
DWIDTH 16 0
BBX 14 10 1 0
BITMAP
E1F0
E3F8
E71C
E70C
FE0C
FE0C
E70C
E71C
E3F8
E1F0
ENDCHAR
STARTCHAR 044F
ENCODING 1103
SWIDTH 565 0
DWIDTH 11 0
BBX 10 10 0 0
BITMAP
3FC0
7FC0
71C0
71C0
7FC0
1FC0
39C0
31C0
71C0
E1C0
ENDCHAR
STARTCHAR 0451
ENCODING 1105
SWIDTH 565 0
DWIDTH 11 0
BBX 9 14 1 0
BITMAP
6600
6600
6600
0000
3E00
7F00
E300
E380
FF80
FF80
E000
E380
7F00
3E00
ENDCHAR
STARTCHAR 0452
ENCODING 1106
SWIDTH 617 0
DWIDTH 12 0
BBX 10 18 0 -4
BITMAP
7000
FE00
FE00
7000
7780
7FC0
79C0
70C0
70C0
70C0
70C0
70C0
70C0
70C0
00C0
00C0
03C0
0380
ENDCHAR
STARTCHAR 0453
ENCODING 1107
SWIDTH 411 0
DWIDTH 8 0
BBX 6 14 1 0
BITMAP
0C
18
30
00
FC
FC
E0
E0
E0
E0
E0
E0
E0
E0
ENDCHAR
STARTCHAR 0454
ENCODING 1108
SWIDTH 565 0
DWIDTH 11 0
BBX 9 10 1 0
BITMAP
3E00
7F00
E380
E000
F800
F800
E000
E380
7F00
3E00
ENDCHAR
STARTCHAR 0455
ENCODING 1109
SWIDTH 565 0
DWIDTH 11 0
BBX 9 10 1 0
BITMAP
3E00
FF00
C380
E000
7E00
3F00
0380
C380
FF00
7E00
ENDCHAR
STARTCHAR 0456
ENCODING 1110
SWIDTH 257 0
DWIDTH 5 0
BBX 3 14 1 0
BITMAP
E0
E0
E0
00
E0
E0
E0
E0
E0
E0
E0
E0
E0
E0
ENDCHAR
STARTCHAR 0457
ENCODING 1111
SWIDTH 257 0
DWIDTH 5 0
BBX 6 14 0 0
BITMAP
CC
CC
CC
00
70
70
70
70
70
70
70
70
70
70
ENDCHAR
STARTCHAR 0458
ENCODING 1112
SWIDTH 257 0
DWIDTH 5 0
BBX 4 18 0 -4
BITMAP
70
70
70
00
70
70
70
70
70
70
70
70
70
70
70
70
F0
E0
ENDCHAR
STARTCHAR 0459
ENCODING 1113
SWIDTH 925 0
DWIDTH 18 0
BBX 18 10 0 0
BITMAP
1FE000
1FE000
18E000
18E000
38FF00
38FF80
38E1C0
30E1C0
F0FF80
E0FF00
ENDCHAR
STARTCHAR 045A
ENCODING 1114
SWIDTH 874 0
DWIDTH 17 0
BBX 15 10 1 0
BITMAP
E380
E380
E380
E380
FFFC
FFFE
E386
E386
E3FE
E3FC
ENDCHAR
STARTCHAR 045B
ENCODING 1115
SWIDTH 617 0
DWIDTH 12 0
BBX 10 14 0 0
BITMAP
7000
FE00
FE00
7000
7780
7FC0
79C0
70C0
70C0
70C0
70C0
70C0
70C0
70C0
ENDCHAR
STARTCHAR 045C
ENCODING 1116
SWIDTH 514 0
DWIDTH 10 0
BBX 8 14 1 0
BITMAP
06
0C
18
00
E3
E7
E6
EE
FC
FC
EE
E6
E7
E3
ENDCHAR
STARTCHAR 045E
ENCODING 1118
SWIDTH 565 0
DWIDTH 11 0
BBX 10 18 0 -4
BITMAP
3180
3F80
1F00
0000
E0C0
61C0
71C0
3180
3380
3B00
1B00
1F00
0E00
0E00
0E00
1C00
7C00
7800
ENDCHAR
STARTCHAR 045F
ENCODING 1119
SWIDTH 565 0
DWIDTH 11 0
BBX 9 14 1 -4
BITMAP
E180
E180
E180
E180
E180
E180
E180
E180
FF80
FF80
0C00
0C00
0C00
0C00
ENDCHAR
STARTCHAR 0490
ENCODING 1168
SWIDTH 462 0
DWIDTH 9 0
BBX 8 17 1 0
BITMAP
03
03
03
03
FF
FF
E0
E0
E0
E0
E0
E0
E0
E0
E0
E0
E0
ENDCHAR
STARTCHAR 0491
ENCODING 1169
SWIDTH 411 0
DWIDTH 8 0
BBX 7 14 1 0
BITMAP
0E
0E
0E
0E
FE
FE
E0
E0
E0
E0
E0
E0
E0
E0
ENDCHAR
STARTCHAR 1E80
ENCODING 7808
SWIDTH 925 0
DWIDTH 18 0
BBX 18 17 0 0
BITMAP
038000
01C000
006000
000000
E1E1C0
E1E1C0
61E180
71E380
73F380
737300
333300
3B3700
3F3F00
3E3E00
1E1E00
1E1E00
1E1E00
ENDCHAR
STARTCHAR 1E81
ENCODING 7809
SWIDTH 771 0
DWIDTH 15 0
BBX 15 14 0 0
BITMAP
0E00
0700
0180
0000
C38E
E38C
668C
66CC
66DC
74D8
3C58
3C78
3C78
3870
ENDCHAR
STARTCHAR 1E82
ENCODING 7810
SWIDTH 925 0
DWIDTH 18 0
BBX 18 17 0 0
BITMAP
003000
006000
00C000
000000
E1E1C0
E1E1C0
61E180
71E380
73F380
737300
333300
3B3700
3F3F00
3E3E00
1E1E00
1E1E00
1E1E00
ENDCHAR
STARTCHAR 1E83
ENCODING 7811
SWIDTH 771 0
DWIDTH 15 0
BBX 15 14 0 0
BITMAP
00E0
0180
0300
0000
C38E
E38C
668C
66CC
66DC
74D8
3C58
3C78
3C78
3870
ENDCHAR
STARTCHAR 1E84
ENCODING 7812
SWIDTH 925 0
DWIDTH 18 0
BBX 18 17 0 0
BITMAP
033000
033000
033000
000000
E1E1C0
E1E1C0
61E180
71E380
73F380
737300
333300
3B3700
3F3F00
3E3E00
1E1E00
1E1E00
1E1E00
ENDCHAR
STARTCHAR 1E85
ENCODING 7813
SWIDTH 771 0
DWIDTH 15 0
BBX 15 14 0 0
BITMAP
0CC0
0CC0
0CC0
0000
C38E
E38C
668C
66CC
66DC
74D8
3C58
3C78
3C78
3870
ENDCHAR
STARTCHAR 1EF2
ENCODING 7922
SWIDTH 668 0
DWIDTH 13 0
BBX 11 17 1 0
BITMAP
1800
0C00
0600
0000
C0E0
E0C0
61C0
7180
3B80
1B00
1F00
0E00
0E00
0E00
0E00
0E00
0E00
ENDCHAR
STARTCHAR 1EF3
ENCODING 7923
SWIDTH 565 0
DWIDTH 11 0
BBX 10 18 0 -4
BITMAP
3800
1C00
0C00
0000
E0C0
61C0
71C0
3180
3380
3B00
1B00
1F00
0E00
0E00
0E00
1C00
7C00
7800
ENDCHAR
STARTCHAR 2010
ENCODING 8208
SWIDTH 308 0
DWIDTH 6 0
BBX 5 2 1 4
BITMAP
F8
F8
ENDCHAR
STARTCHAR 2011
ENCODING 8209
SWIDTH 308 0
DWIDTH 6 0
BBX 5 2 1 4
BITMAP
F8
F8
ENDCHAR
STARTCHAR 2013
ENCODING 8211
SWIDTH 565 0
DWIDTH 11 0
BBX 9 2 1 4
BITMAP
FF80
FF80
ENDCHAR
STARTCHAR 2014
ENCODING 8212
SWIDTH 977 0
DWIDTH 19 0
BBX 19 2 0 4
BITMAP
FFFFE0
FFFFE0
ENDCHAR
STARTCHAR 2015
ENCODING 8213
SWIDTH 977 0
DWIDTH 19 0
BBX 19 2 0 4
BITMAP
FFFFE0
FFFFE0
ENDCHAR
STARTCHAR 2017
ENCODING 8215
SWIDTH 565 0
DWIDTH 11 0
BBX 11 3 0 -5
BITMAP
FFE0
0000
FFE0
ENDCHAR
STARTCHAR 2018
ENCODING 8216
SWIDTH 257 0
DWIDTH 5 0
BBX 3 6 1 7
BITMAP
60
40
C0
E0
E0
E0
ENDCHAR
STARTCHAR 2019
ENCODING 8217
SWIDTH 257 0
DWIDTH 5 0
BBX 3 6 1 7
BITMAP
E0
E0
E0
60
60
40
ENDCHAR
STARTCHAR 201A
ENCODING 8218
SWIDTH 257 0
DWIDTH 5 0
BBX 3 6 1 -3
BITMAP
E0
E0
E0
60
60
40
ENDCHAR
STARTCHAR 201B
ENCODING 8219
SWIDTH 257 0
DWIDTH 5 0
BBX 3 6 1 7
BITMAP
E0
E0
E0
C0
40
60
ENDCHAR
STARTCHAR 201C
ENCODING 8220
SWIDTH 514 0
DWIDTH 10 0
BBX 7 6 1 7
BITMAP
66
44
4C
EE
EE
EE
ENDCHAR
STARTCHAR 201D
ENCODING 8221
SWIDTH 514 0
DWIDTH 10 0
BBX 7 6 1 7
BITMAP
EE
EE
EE
22
66
44
ENDCHAR
STARTCHAR 201E
ENCODING 8222
SWIDTH 514 0
DWIDTH 10 0
BBX 7 6 1 -3
BITMAP
EE
EE
EE
22
66
44
ENDCHAR
STARTCHAR 2020
ENCODING 8224
SWIDTH 565 0
DWIDTH 11 0
BBX 8 15 1 -1
BITMAP
18
18
18
FF
FF
18
18
18
18
18
18
18
08
08
08
ENDCHAR
STARTCHAR 2021
ENCODING 8225
SWIDTH 565 0
DWIDTH 11 0
BBX 8 15 1 -1
BITMAP
18
18
18
FF
FF
08
08
08
08
08
FF
FF
18
18
18
ENDCHAR
STARTCHAR 2022
ENCODING 8226
SWIDTH 360 0
DWIDTH 7 0
BBX 5 5 1 4
BITMAP
70
F8
F8
F8
70
ENDCHAR
STARTCHAR 2026
ENCODING 8230
SWIDTH 977 0
DWIDTH 19 0
BBX 15 3 2 0
BITMAP
E38E
E38E
E38E
ENDCHAR
STARTCHAR 2030
ENCODING 8240
SWIDTH 977 0
DWIDTH 19 0
BBX 19 13 0 0
BITMAP
786000
48C000
CCC000
CD8000
CD0000
4B0000
7EE3C0
079240
0D9660
0D9660
199660
119240
30E3C0
ENDCHAR
STARTCHAR 2032
ENCODING 8242
SWIDTH 257 0
DWIDTH 5 0
BBX 3 5 1 8
BITMAP
E0
E0
C0
C0
C0
ENDCHAR
STARTCHAR 2033
ENCODING 8243
SWIDTH 462 0
DWIDTH 9 0
BBX 8 5 1 8
BITMAP
E7
E6
C6
CE
CC
ENDCHAR
STARTCHAR 2039
ENCODING 8249
SWIDTH 308 0
DWIDTH 6 0
BBX 4 7 1 1
BITMAP
30
70
E0
C0
E0
70
30
ENDCHAR
STARTCHAR 203A
ENCODING 8250
SWIDTH 308 0
DWIDTH 6 0
BBX 4 7 1 1
BITMAP
C0
60
70
30
70
60
C0
ENDCHAR
STARTCHAR 203C
ENCODING 8252
SWIDTH 565 0
DWIDTH 11 0
BBX 8 13 2 0
BITMAP
C7
C7
C7
C7
C7
C7
C6
C6
C6
00
C7
C7
C7
ENDCHAR
STARTCHAR 203E
ENCODING 8254
SWIDTH 308 0
DWIDTH 6 0
BBX 9 2 -1 13
BITMAP
FF80
FF80
ENDCHAR
STARTCHAR 2044
ENCODING 8260
SWIDTH 154 0
DWIDTH 3 0
BBX 9 13 -3 0
BITMAP
0180
0180
0300
0200
0600
0C00
0C00
1800
3000
3000
6000
C000
C000
ENDCHAR
STARTCHAR 207F
ENCODING 8319
SWIDTH 411 0
DWIDTH 8 0
BBX 6 6 1 5
BITMAP
F8
CC
CC
CC
CC
CC
ENDCHAR
STARTCHAR 20A3
ENCODING 8355
SWIDTH 565 0
DWIDTH 11 0
BBX 10 13 0 0
BITMAP
7FC0
7FC0
7000
7000
7000
7FC0
7FC0
7000
7000
FE00
FE00
7000
7000
ENDCHAR
STARTCHAR 20A4
ENCODING 8356
SWIDTH 565 0
DWIDTH 11 0
BBX 10 13 0 0
BITMAP
0F00
3F80
39C0
3000
3000
FE00
3000
FE00
3000
3000
60C0
FFC0
FF80
ENDCHAR
STARTCHAR 20A7
ENCODING 8359
SWIDTH 1080 0
DWIDTH 21 0
BBX 19 13 1 0
BITMAP
FC0000
FF0000
E70000
E36000
E36000
E7F7C0
FEF7E0
FC6600
E06780
E060E0
E06C60
E077E0
E077C0
ENDCHAR
STARTCHAR 20AC
ENCODING 8364
SWIDTH 565 0
DWIDTH 11 0
BBX 10 13 0 0
BITMAP
0F00
1FC0
39C0
3000
7000
FE00
7000
FE00
7000
3000
39C0
1FC0
0F80
ENDCHAR
STARTCHAR 2105
ENCODING 8453
SWIDTH 874 0
DWIDTH 17 0
BBX 15 13 1 0
BITMAP
7830
C830
CC60
80C0
80C0
CDBC
CB66
7B66
0666
0C66
0C66
1866
303C
ENDCHAR
STARTCHAR 2113
ENCODING 8467
SWIDTH 462 0
DWIDTH 9 0
BBX 9 13 0 0
BITMAP
1E00
3F00
3380
3380
3300
3700
3E00
F800
F000
3100
3100
3F00
1E00
ENDCHAR
STARTCHAR 2116
ENCODING 8470
SWIDTH 1080 0
DWIDTH 21 0
BBX 19 13 1 0
BITMAP
E06000
F06000
F86000
D86000
DC63C0
EE6660
E66660
E76660
E36660
E3E660
E1E3C0
E0E000
E0E7E0
ENDCHAR
STARTCHAR 2122
ENCODING 8482
SWIDTH 977 0
DWIDTH 19 0
BBX 16 6 1 7
BITMAP
FDC7
31C7
31EF
31AB
31BB
3193
ENDCHAR
STARTCHAR 2126
ENCODING 8486
SWIDTH 771 0
DWIDTH 15 0
BBX 13 13 1 0
BITMAP
1F80
3FE0
70F0
E070
E030
E038
E030
E030
7070
38E0
1DC0
FDF8
FDF8
ENDCHAR
STARTCHAR 212E
ENCODING 8494
SWIDTH 565 0
DWIDTH 11 0
BBX 10 10 1 0
BITMAP
3E00
6100
C180
C180
FFC0
C000
C000
C080
6100
3E00
ENDCHAR
STARTCHAR 215B
ENCODING 8539
SWIDTH 822 0
DWIDTH 16 0
BBX 14 13 1 0
BITMAP
6030
A060
2060
20C0
2180
F980
0300
0278
064C
0C38
084C
184C
3078
ENDCHAR
STARTCHAR 215C
ENCODING 8540
SWIDTH 822 0
DWIDTH 16 0
BBX 14 13 1 0
BITMAP
F830
1860
3040
18C0
D980
7900
0300
0678
064C
0C38
184C
184C
3078
ENDCHAR
STARTCHAR 215D
ENCODING 8541
SWIDTH 822 0
DWIDTH 16 0
BBX 14 13 1 0
BITMAP
F830
C060
F840
08C0
C980
7900
0300
0678
064C
0C38
184C
184C
3078
ENDCHAR
STARTCHAR 215E
ENCODING 8542
SWIDTH 822 0
DWIDTH 16 0
BBX 13 13 2 0
BITMAP
F840
10C0
3180
6180
6300
6600
0600
0CF0
0898
1870
3098
2098
60F0
ENDCHAR
STARTCHAR 2190
ENCODING 8592
SWIDTH 977 0
DWIDTH 19 0
BBX 11 5 4 1
BITMAP
2000
4000
FFE0
4000
2000
ENDCHAR
STARTCHAR 2191
ENCODING 8593
SWIDTH 514 0
DWIDTH 10 0
BBX 4 11 3 0
BITMAP
40
E0
D0
40
40
40
40
40
40
40
40
ENDCHAR
STARTCHAR 2192
ENCODING 8594
SWIDTH 977 0
DWIDTH 19 0
BBX 11 5 4 1
BITMAP
0080
0040
FFE0
0040
0080
ENDCHAR
STARTCHAR 2193
ENCODING 8595
SWIDTH 514 0
DWIDTH 10 0
BBX 4 11 3 0
BITMAP
40
40
40
40
40
40
40
40
D0
E0
40
ENDCHAR
STARTCHAR 2194
ENCODING 8596
SWIDTH 977 0
DWIDTH 19 0
BBX 11 5 4 1
BITMAP
2080
4040
FFE0
4040
2080
ENDCHAR
STARTCHAR 2195
ENCODING 8597
SWIDTH 514 0
DWIDTH 10 0
BBX 4 11 3 0
BITMAP
40
E0
D0
40
40
40
40
40
D0
E0
40
ENDCHAR
STARTCHAR 21A8
ENCODING 8616
SWIDTH 514 0
DWIDTH 10 0
BBX 4 13 3 -2
BITMAP
40
E0
D0
40
40
40
40
40
D0
E0
40
00
F0
ENDCHAR
STARTCHAR 2202
ENCODING 8706
SWIDTH 462 0
DWIDTH 9 0
BBX 9 14 0 0
BITMAP
1E00
1F00
0300
0180
1D80
3F80
7380
6380
6300
6300
E300
6600
7E00
3C00
ENDCHAR
STARTCHAR 2206
ENCODING 8710
SWIDTH 617 0
DWIDTH 12 0
BBX 11 13 0 0
BITMAP
0F00
0F00
1F00
1B80
1980
3980
31C0
31C0
70C0
70E0
60E0
FFE0
FFE0
ENDCHAR
STARTCHAR 220F
ENCODING 8719
SWIDTH 822 0
DWIDTH 16 0
BBX 12 17 2 -4
BITMAP
FFF0
FFF0
E070
E070
E070
E070
E070
E070
E070
E070
E070
E070
E070
E070
E070
E070
E070
ENDCHAR
STARTCHAR 2211
ENCODING 8721
SWIDTH 720 0
DWIDTH 14 0
BBX 12 17 1 -4
BITMAP
FFE0
7FE0
7000
3800
1C00
0E00
0E00
0700
0380
0700
0E00
1C00
1C00
3800
7000
FFF0
FFF0
ENDCHAR
STARTCHAR 2212
ENCODING 8722
SWIDTH 565 0
DWIDTH 11 0
BBX 9 2 1 5
BITMAP
FF80
FF80
ENDCHAR
STARTCHAR 2215
ENCODING 8725
SWIDTH 154 0
DWIDTH 3 0
BBX 9 13 -3 0
BITMAP
0180
0180
0300
0200
0600
0C00
0C00
1800
3000
3000
6000
C000
C000
ENDCHAR
STARTCHAR 2219
ENCODING 8729
SWIDTH 257 0
DWIDTH 5 0
BBX 3 3 1 5
BITMAP
E0
E0
E0
ENDCHAR
STARTCHAR 221A
ENCODING 8730
SWIDTH 514 0
DWIDTH 10 0
BBX 10 15 0 0
BITMAP
0040
00C0
00C0
0080
0180
0180
0100
E100
E300
3300
3200
1600
1E00
0C00
0C00
ENDCHAR
STARTCHAR 221E
ENCODING 8734
SWIDTH 720 0
DWIDTH 14 0
BBX 12 7 1 2
BITMAP
71C0
FBE0
CF30
8630
CE30
FBE0
71E0
ENDCHAR
STARTCHAR 221F
ENCODING 8735
SWIDTH 977 0
DWIDTH 19 0
BBX 11 11 4 0
BITMAP
8000
8000
8000
8000
8000
8000
8000
8000
8000
8000
FFE0
ENDCHAR
STARTCHAR 2229
ENCODING 8745
SWIDTH 720 0
DWIDTH 14 0
BBX 8 10 3 0
BITMAP
3C
42
81
81
81
81
81
81
81
81
ENDCHAR
STARTCHAR 222B
ENCODING 8747
SWIDTH 257 0
DWIDTH 5 0
BBX 8 18 -1 -4
BITMAP
0F
1F
38
38
38
38
38
38
38
38
38
38
38
38
38
38
F0
E0
ENDCHAR
STARTCHAR 2248
ENCODING 8776
SWIDTH 514 0
DWIDTH 10 0
BBX 10 8 0 3
BITMAP
7800
7C40
8FC0
0380
7800
FC40
8FC0
8380
ENDCHAR
STARTCHAR 2260
ENCODING 8800
SWIDTH 514 0
DWIDTH 10 0
BBX 10 10 0 1
BITMAP
0180
0300
FFC0
FFC0
0C00
0C00
FFC0
FFC0
3000
6000
ENDCHAR
STARTCHAR 2261
ENCODING 8801
SWIDTH 565 0
DWIDTH 11 0
BBX 9 8 1 2
BITMAP
FF80
0000
0000
FF80
0000
0000
0000
FF80
ENDCHAR
STARTCHAR 2264
ENCODING 8804
SWIDTH 514 0
DWIDTH 10 0
BBX 10 12 0 0
BITMAP
00C0
07C0
3F80
F800
C000
F800
3F80
07C0
00C0
0000
FFC0
FFC0
ENDCHAR
STARTCHAR 2265
ENCODING 8805
SWIDTH 514 0
DWIDTH 10 0
BBX 10 12 0 0
BITMAP
C000
F800
3F00
07C0
00C0
07C0
3F00
F800
C000
0000
FFC0
FFC0
ENDCHAR
STARTCHAR 2302
ENCODING 8962
SWIDTH 565 0
DWIDTH 11 0
BBX 9 11 1 0
BITMAP
0800
1400
2200
2100
4080
8080
8080
8080
8080
8080
FF80
ENDCHAR
STARTCHAR 2310
ENCODING 8976
SWIDTH 565 0
DWIDTH 11 0
BBX 9 5 1 2
BITMAP
FF80
FF80
8000
8000
8000
ENDCHAR
STARTCHAR 2320
ENCODING 8992
SWIDTH 565 0
DWIDTH 11 0
BBX 4 22 5 -6
BITMAP
70
70
80
80
80
80
80
80
80
80
80
80
80
80
80
80
80
80
80
80
80
80
ENDCHAR
STARTCHAR 2321
ENCODING 8993
SWIDTH 565 0
DWIDTH 11 0
BBX 3 22 3 -6
BITMAP
20
20
20
20
20
20
20
20
20
20
20
20
20
20
20
20
20
20
20
20
A0
C0
ENDCHAR
STARTCHAR 2500
ENCODING 9472
SWIDTH 668 0
DWIDTH 13 0
BBX 14 1 0 5
BITMAP
FFFC
ENDCHAR
STARTCHAR 2502
ENCODING 9474
SWIDTH 617 0
DWIDTH 12 0
BBX 2 23 4 -6
BITMAP
C0
C0
C0
C0
C0
C0
C0
C0
C0
C0
C0
C0
C0
C0
C0
C0
C0
C0
C0
C0
C0
C0
C0
ENDCHAR
STARTCHAR 250C
ENCODING 9484
SWIDTH 668 0
DWIDTH 13 0
BBX 8 12 6 -6
BITMAP
FF
80
80
80
80
80
80
80
80
80
80
80
ENDCHAR
STARTCHAR 2510
ENCODING 9488
SWIDTH 668 0
DWIDTH 13 0
BBX 7 12 0 -6
BITMAP
FE
02
02
02
02
02
02
02
02
02
02
02
ENDCHAR
STARTCHAR 2514
ENCODING 9492
SWIDTH 668 0
DWIDTH 13 0
BBX 8 12 6 5
BITMAP
80
80
80
80
80
80
80
80
80
80
80
FF
ENDCHAR
STARTCHAR 2518
ENCODING 9496
SWIDTH 668 0
DWIDTH 13 0
BBX 7 12 0 5
BITMAP
02
02
02
02
02
02
02
02
02
02
02
FE
ENDCHAR
STARTCHAR 251C
ENCODING 9500
SWIDTH 668 0
DWIDTH 13 0
BBX 8 23 6 -6
BITMAP
80
80
80
80
80
80
80
80
80
80
80
FF
80
80
80
80
80
80
80
80
80
80
80
ENDCHAR
STARTCHAR 2524
ENCODING 9508
SWIDTH 668 0
DWIDTH 13 0
BBX 7 23 0 -6
BITMAP
02
02
02
02
02
02
02
02
02
02
02
FE
02
02
02
02
02
02
02
02
02
02
02
ENDCHAR
STARTCHAR 252C
ENCODING 9516
SWIDTH 668 0
DWIDTH 13 0
BBX 14 12 0 -6
BITMAP
FFFC
0200
0200
0200
0200
0200
0200
0200
0200
0200
0200
0200
ENDCHAR
STARTCHAR 2534
ENCODING 9524
SWIDTH 668 0
DWIDTH 13 0
BBX 14 12 0 5
BITMAP
0200
0200
0200
0200
0200
0200
0200
0200
0200
0200
0200
FFFC
ENDCHAR
STARTCHAR 253C
ENCODING 9532
SWIDTH 668 0
DWIDTH 13 0
BBX 14 23 0 -6
BITMAP
0200
0200
0200
0200
0200
0200
0200
0200
0200
0200
0200
FFFC
0200
0200
0200
0200
0200
0200
0200
0200
0200
0200
0200
ENDCHAR
STARTCHAR 2550
ENCODING 9552
SWIDTH 668 0
DWIDTH 13 0
BBX 14 4 0 4
BITMAP
FFFC
0000
0000
FFFC
ENDCHAR
STARTCHAR 2551
ENCODING 9553
SWIDTH 668 0
DWIDTH 13 0
BBX 5 23 4 -6
BITMAP
C8
C8
C8
C8
C8
C8
C8
C8
C8
C8
C8
C8
C8
C8
C8
C8
C8
C8
C8
C8
C8
C8
C8
ENDCHAR
STARTCHAR 2552
ENCODING 9554
SWIDTH 668 0
DWIDTH 13 0
BBX 8 14 6 -6
BITMAP
FF
80
80
FF
80
80
80
80
80
80
80
80
80
80
ENDCHAR
STARTCHAR 2553
ENCODING 9555
SWIDTH 668 0
DWIDTH 13 0
BBX 10 12 4 -6
BITMAP
FFC0
C800
C800
C800
C800
C800
C800
C800
C800
C800
C800
C800
ENDCHAR
STARTCHAR 2554
ENCODING 9556
SWIDTH 668 0
DWIDTH 13 0
BBX 10 14 4 -6
BITMAP
FFC0
C000
C000
CFC0
C800
C800
C800
C800
C800
C800
C800
C800
C800
C800
ENDCHAR
STARTCHAR 2555
ENCODING 9557
SWIDTH 668 0
DWIDTH 13 0
BBX 7 14 0 -6
BITMAP
FE
02
02
FE
02
02
02
02
02
02
02
02
02
02
ENDCHAR
STARTCHAR 2556
ENCODING 9558
SWIDTH 668 0
DWIDTH 13 0
BBX 9 12 0 -6
BITMAP
FF80
0C80
0C80
0C80
0C80
0C80
0C80
0C80
0C80
0C80
0C80
0C80
ENDCHAR
STARTCHAR 2557
ENCODING 9559
SWIDTH 668 0
DWIDTH 13 0
BBX 9 14 0 -6
BITMAP
FF80
0080
0080
FC80
0C80
0C80
0C80
0C80
0C80
0C80
0C80
0C80
0C80
0C80
ENDCHAR
STARTCHAR 2558
ENCODING 9560
SWIDTH 668 0
DWIDTH 13 0
BBX 8 13 6 4
BITMAP
80
80
80
80
80
80
80
80
80
FF
80
80
FF
ENDCHAR
STARTCHAR 2559
ENCODING 9561
SWIDTH 668 0
DWIDTH 13 0
BBX 10 12 4 5
BITMAP
C800
C800
C800
C800
C800
C800
C800
C800
C800
C800
C800
FFC0
ENDCHAR
STARTCHAR 255A
ENCODING 9562
SWIDTH 668 0
DWIDTH 13 0
BBX 10 13 4 4
BITMAP
C800
C800
C800
C800
C800
C800
C800
C800
C800
CFC0
C000
C000
FFC0
ENDCHAR
STARTCHAR 255B
ENCODING 9563
SWIDTH 668 0
DWIDTH 13 0
BBX 7 13 0 4
BITMAP
02
02
02
02
02
02
02
02
02
FE
02
02
FE
ENDCHAR
STARTCHAR 255C
ENCODING 9564
SWIDTH 668 0
DWIDTH 13 0
BBX 9 12 0 5
BITMAP
0C80
0C80
0C80
0C80
0C80
0C80
0C80
0C80
0C80
0C80
0C80
FF80
ENDCHAR
STARTCHAR 255D
ENCODING 9565
SWIDTH 668 0
DWIDTH 13 0
BBX 9 13 0 4
BITMAP
0C80
0C80
0C80
0C80
0C80
0C80
0C80
0C80
0C80
FC80
0080
0080
FF80
ENDCHAR
STARTCHAR 255E
ENCODING 9566
SWIDTH 668 0
DWIDTH 13 0
BBX 8 23 6 -6
BITMAP
80
80
80
80
80
80
80
80
80
FF
80
80
FF
80
80
80
80
80
80
80
80
80
80
ENDCHAR
STARTCHAR 255F
ENCODING 9567
SWIDTH 668 0
DWIDTH 13 0
BBX 10 23 4 -6
BITMAP
C800
C800
C800
C800
C800
C800
C800
C800
C800
C800
C800
CFC0
C800
C800
C800
C800
C800
C800
C800
C800
C800
C800
C800
ENDCHAR
STARTCHAR 2560
ENCODING 9568
SWIDTH 668 0
DWIDTH 13 0
BBX 10 23 4 -6
BITMAP
C800
C800
C800
C800
C800
C800
C800
C800
C800
CFC0
C000
C000
CFC0
C800
C800
C800
C800
C800
C800
C800
C800
C800
C800
ENDCHAR
STARTCHAR 2561
ENCODING 9569
SWIDTH 668 0
DWIDTH 13 0
BBX 7 23 0 -6
BITMAP
02
02
02
02
02
02
02
02
02
FE
02
02
FE
02
02
02
02
02
02
02
02
02
02
ENDCHAR
STARTCHAR 2562
ENCODING 9570
SWIDTH 668 0
DWIDTH 13 0
BBX 9 23 0 -6
BITMAP
0C80
0C80
0C80
0C80
0C80
0C80
0C80
0C80
0C80
0C80
0C80
FC80
0C80
0C80
0C80
0C80
0C80
0C80
0C80
0C80
0C80
0C80
0C80
ENDCHAR
STARTCHAR 2563
ENCODING 9571
SWIDTH 668 0
DWIDTH 13 0
BBX 9 23 0 -6
BITMAP
0C80
0C80
0C80
0C80
0C80
0C80
0C80
0C80
0C80
FC80
0080
0080
FC80
0C80
0C80
0C80
0C80
0C80
0C80
0C80
0C80
0C80
0C80
ENDCHAR
STARTCHAR 2564
ENCODING 9572
SWIDTH 668 0
DWIDTH 13 0
BBX 14 14 0 -6
BITMAP
FFFC
0000
0000
FFFC
0200
0200
0200
0200
0200
0200
0200
0200
0200
0200
ENDCHAR
STARTCHAR 2565
ENCODING 9573
SWIDTH 668 0
DWIDTH 13 0
BBX 14 12 0 -6
BITMAP
FFFC
0C80
0C80
0C80
0C80
0C80
0C80
0C80
0C80
0C80
0C80
0C80
ENDCHAR
STARTCHAR 2566
ENCODING 9574
SWIDTH 668 0
DWIDTH 13 0
BBX 14 14 0 -6
BITMAP
FFFC
0000
0000
FCFC
0C80
0C80
0C80
0C80
0C80
0C80
0C80
0C80
0C80
0C80
ENDCHAR
STARTCHAR 2567
ENCODING 9575
SWIDTH 668 0
DWIDTH 13 0
BBX 14 13 0 4
BITMAP
0200
0200
0200
0200
0200
0200
0200
0200
0200
FFFC
0000
0000
FFFC
ENDCHAR
STARTCHAR 2568
ENCODING 9576
SWIDTH 668 0
DWIDTH 13 0
BBX 14 12 0 5
BITMAP
0C80
0C80
0C80
0C80
0C80
0C80
0C80
0C80
0C80
0C80
0C80
FFFC
ENDCHAR
STARTCHAR 2569
ENCODING 9577
SWIDTH 668 0
DWIDTH 13 0
BBX 14 13 0 4
BITMAP
0C80
0C80
0C80
0C80
0C80
0C80
0C80
0C80
0C80
FCFC
0000
0000
FFFC
ENDCHAR
STARTCHAR 256A
ENCODING 9578
SWIDTH 668 0
DWIDTH 13 0
BBX 14 23 0 -6
BITMAP
0200
0200
0200
0200
0200
0200
0200
0200
0200
FFFC
0200
0200
FFFC
0200
0200
0200
0200
0200
0200
0200
0200
0200
0200
ENDCHAR
STARTCHAR 256B
ENCODING 9579
SWIDTH 668 0
DWIDTH 13 0
BBX 14 23 0 -6
BITMAP
0C80
0C80
0C80
0C80
0C80
0C80
0C80
0C80
0C80
0C80
0C80
FFFC
0C80
0C80
0C80
0C80
0C80
0C80
0C80
0C80
0C80
0C80
0C80
ENDCHAR
STARTCHAR 256C
ENCODING 9580
SWIDTH 668 0
DWIDTH 13 0
BBX 14 23 0 -6
BITMAP
0C80
0C80
0C80
0C80
0C80
0C80
0C80
0C80
0C80
FCFC
0000
0000
FCFC
0C80
0C80
0C80
0C80
0C80
0C80
0C80
0C80
0C80
0C80
ENDCHAR
STARTCHAR 2580
ENCODING 9600
SWIDTH 668 0
DWIDTH 13 0
BBX 13 11 0 6
BITMAP
FFF8
FFF8
FFF8
FFF8
FFF8
FFF8
FFF8
FFF8
FFF8
FFF8
FFF8
ENDCHAR
STARTCHAR 2584
ENCODING 9604
SWIDTH 668 0
DWIDTH 13 0
BBX 13 12 0 -6
BITMAP
FFF8
FFF8
FFF8
FFF8
FFF8
FFF8
FFF8
FFF8
FFF8
FFF8
FFF8
FFF8
ENDCHAR
STARTCHAR 2588
ENCODING 9608
SWIDTH 668 0
DWIDTH 13 0
BBX 13 23 0 -6
BITMAP
FFF8
FFF8
FFF8
FFF8
FFF8
FFF8
FFF8
FFF8
FFF8
FFF8
FFF8
FFF8
FFF8
FFF8
FFF8
FFF8
FFF8
FFF8
FFF8
FFF8
FFF8
FFF8
FFF8
ENDCHAR
STARTCHAR 258C
ENCODING 9612
SWIDTH 668 0
DWIDTH 13 0
BBX 7 23 0 -6
BITMAP
FE
FE
FE
FE
FE
FE
FE
FE
FE
FE
FE
FE
FE
FE
FE
FE
FE
FE
FE
FE
FE
FE
FE
ENDCHAR
STARTCHAR 2590
ENCODING 9616
SWIDTH 668 0
DWIDTH 13 0
BBX 6 23 7 -6
BITMAP
FC
FC
FC
FC
FC
FC
FC
FC
FC
FC
FC
FC
FC
FC
FC
FC
FC
FC
FC
FC
FC
FC
FC
ENDCHAR
STARTCHAR 2591
ENCODING 9617
SWIDTH 668 0
DWIDTH 13 0
BBX 12 21 1 -5
BITMAP
8890
0000
2220
0000
8890
2220
0000
8890
0000
2220
0000
8890
0000
2220
0000
8890
2220
0000
8890
0000
2220
ENDCHAR
STARTCHAR 2592
ENCODING 9618
SWIDTH 668 0
DWIDTH 13 0
BBX 13 21 0 -5
BITMAP
5558
0000
AAA8
0000
5558
0000
AAA8
5558
0000
AAA8
0000
5558
0000
AAA8
0000
0000
AAA8
0000
5558
0000
AAA8
ENDCHAR
STARTCHAR 2593
ENCODING 9619
SWIDTH 720 0
DWIDTH 14 0
BBX 14 22 0 -6
BITMAP
5554
FFFC
AAA8
FFFC
5554
FFFC
AAA8
5554
FFFC
AAA8
FFFC
5554
FFFC
AAA8
FFFC
FFFC
AAA8
FFFC
5554
FFFC
AAA8
FFFC
ENDCHAR
STARTCHAR 25A0
ENCODING 9632
SWIDTH 565 0
DWIDTH 11 0
BBX 9 9 1 1
BITMAP
FF80
FF80
FF80
FF80
FF80
FF80
FF80
FF80
FF80
ENDCHAR
STARTCHAR 25A1
ENCODING 9633
SWIDTH 565 0
DWIDTH 11 0
BBX 11 11 0 0
BITMAP
FFE0
8020
8020
8020
8020
8020
8020
8020
8020
8020
FFE0
ENDCHAR
STARTCHAR 25AA
ENCODING 9642
SWIDTH 360 0
DWIDTH 7 0
BBX 5 5 1 3
BITMAP
F8
F8
F8
F8
F8
ENDCHAR
STARTCHAR 25AB
ENCODING 9643
SWIDTH 360 0
DWIDTH 7 0
BBX 5 5 1 3
BITMAP
F8
88
88
88
F8
ENDCHAR
STARTCHAR 25AC
ENCODING 9644
SWIDTH 977 0
DWIDTH 19 0
BBX 19 6 0 0
BITMAP
FFFFE0
FFFFE0
FFFFE0
FFFFE0
FFFFE0
FFFFE0
ENDCHAR
STARTCHAR 25B2
ENCODING 9650
SWIDTH 977 0
DWIDTH 19 0
BBX 11 11 4 0
BITMAP
0400
0400
0E00
0E00
1F00
1F00
3F80
3F80
7FC0
7FC0
FFE0
ENDCHAR
STARTCHAR 25BA
ENCODING 9658
SWIDTH 977 0
DWIDTH 19 0
BBX 11 11 4 0
BITMAP
8000
E000
F800
FE00
FF80
FFE0
FF80
FE00
F800
E000
8000
ENDCHAR
STARTCHAR 25BC
ENCODING 9660
SWIDTH 977 0
DWIDTH 19 0
BBX 11 11 4 0
BITMAP
FFE0
7FC0
7FC0
3F80
3F80
1F00
1F00
0E00
0E00
0400
0400
ENDCHAR
STARTCHAR 25C4
ENCODING 9668
SWIDTH 977 0
DWIDTH 19 0
BBX 11 11 4 0
BITMAP
0020
00E0
03E0
0FE0
3FE0
FFE0
3FE0
0FE0
03E0
00E0
0020
ENDCHAR
STARTCHAR 25CA
ENCODING 9674
SWIDTH 462 0
DWIDTH 9 0
BBX 9 13 0 0
BITMAP
0800
1C00
1E00
3600
6300
6180
C180
6180
6300
3200
1600
1C00
0800
ENDCHAR
STARTCHAR 25CB
ENCODING 9675
SWIDTH 565 0
DWIDTH 11 0
BBX 8 8 2 2
BITMAP
3C
C2
81
81
81
81
C2
3C
ENDCHAR
STARTCHAR 25CF
ENCODING 9679
SWIDTH 565 0
DWIDTH 11 0
BBX 8 8 2 1
BITMAP
3C
7E
FF
FF
FF
FF
7E
3C
ENDCHAR
STARTCHAR 25D8
ENCODING 9688
SWIDTH 565 0
DWIDTH 11 0
BBX 11 11 0 0
BITMAP
FFE0
F0E0
E060
C060
C020
C020
C020
C060
E060
F0E0
FFE0
ENDCHAR
STARTCHAR 25D9
ENCODING 9689
SWIDTH 565 0
DWIDTH 11 0
BBX 11 11 0 0
BITMAP
FFE0
F0E0
EE60
DFE0
FFA0
FFA0
FFA0
DFE0
EE60
F0E0
FFE0
ENDCHAR
STARTCHAR 25E6
ENCODING 9702
SWIDTH 360 0
DWIDTH 7 0
BBX 5 5 1 3
BITMAP
70
88
88
88
70
ENDCHAR
STARTCHAR 263A
ENCODING 9786
SWIDTH 977 0
DWIDTH 19 0
BBX 11 11 4 0
BITMAP
1F00
20C0
4040
8020
91A0
8020
8020
9120
4E40
20C0
1F00
ENDCHAR
STARTCHAR 263B
ENCODING 9787
SWIDTH 1028 0
DWIDTH 20 0
BBX 12 11 4 0
BITMAP
0F00
3FC0
7FE0
7FE0
E670
FFF0
FFF0
6FE0
70E0
3FC0
0F00
ENDCHAR
STARTCHAR 263C
ENCODING 9788
SWIDTH 874 0
DWIDTH 17 0
BBX 11 11 3 -1
BITMAP
0400
4440
2F80
1080
2080
E060
2080
1080
2F80
4440
0400
ENDCHAR
STARTCHAR 2640
ENCODING 9792
SWIDTH 720 0
DWIDTH 14 0
BBX 6 10 4 1
BITMAP
38
44
84
44
78
10
10
FC
10
10
ENDCHAR
STARTCHAR 2642
ENCODING 9794
SWIDTH 720 0
DWIDTH 14 0
BBX 8 8 3 3
BITMAP
07
03
05
78
88
84
88
70
ENDCHAR
STARTCHAR 2660
ENCODING 9824
SWIDTH 514 0
DWIDTH 10 0
BBX 9 10 1 1
BITMAP
1800
1C00
7E00
FF00
FF00
FF80
EF00
0800
1800
7E00
ENDCHAR
STARTCHAR 2663
ENCODING 9827
SWIDTH 617 0
DWIDTH 12 0
BBX 11 11 1 0
BITMAP
0E00
1F00
1F00
1F00
FFC0
FFE0
FFE0
FBE0
75C0
0C00
3F00
ENDCHAR
STARTCHAR 2665
ENCODING 9829
SWIDTH 565 0
DWIDTH 11 0
BBX 9 10 1 0
BITMAP
7380
F780
FF80
FF80
7F80
7F00
3E00
1C00
0C00
0800
ENDCHAR
STARTCHAR 2666
ENCODING 9830
SWIDTH 514 0
DWIDTH 10 0
BBX 8 11 1 0
BITMAP
10
18
3C
7C
FE
FF
FE
7C
3C
18
10
ENDCHAR
STARTCHAR 266A
ENCODING 9834
SWIDTH 514 0
DWIDTH 10 0
BBX 6 10 2 0
BITMAP
20
10
18
28
24
24
24
E8
E0
C0
ENDCHAR
STARTCHAR 266B
ENCODING 9835
SWIDTH 720 0
DWIDTH 14 0
BBX 9 11 3 0
BITMAP
0180
1E80
3080
2F80
3880
2080
2080
2080
E380
E780
C700
ENDCHAR
STARTCHAR F001
ENCODING 61441
SWIDTH 617 0
DWIDTH 12 0
BBX 10 14 0 0
BITMAP
1CC0
3CC0
38C0
3000
FCC0
FCC0
30C0
30C0
30C0
30C0
30C0
30C0
30C0
30C0
ENDCHAR
STARTCHAR F002
ENCODING 61442
SWIDTH 617 0
DWIDTH 12 0
BBX 10 14 0 0
BITMAP
1CC0
3CC0
38C0
30C0
FCC0
FCC0
30C0
30C0
30C0
30C0
30C0
30C0
30C0
30C0
ENDCHAR
STARTCHAR F005
ENCODING 61445
SWIDTH 308 0
DWIDTH 6 0
BBX 4 3 1 -4
BITMAP
70
30
F0
ENDCHAR
STARTCHAR FB01
ENCODING 64257
SWIDTH 617 0
DWIDTH 12 0
BBX 10 14 0 0
BITMAP
1CC0
3CC0
38C0
3000
FCC0
FCC0
30C0
30C0
30C0
30C0
30C0
30C0
30C0
30C0
ENDCHAR
STARTCHAR FB02
ENCODING 64258
SWIDTH 617 0
DWIDTH 12 0
BBX 10 14 0 0
BITMAP
1CC0
3CC0
38C0
30C0
FCC0
FCC0
30C0
30C0
30C0
30C0
30C0
30C0
30C0
30C0
ENDCHAR
ENDFONT
